<?xml version="1.0" encoding="UTF-8" standalone="no"?>
<!-- Created with Inkscape (http://www.inkscape.org/) -->

<svg
   xmlns:dc="http://purl.org/dc/elements/1.1/"
   xmlns:cc="http://creativecommons.org/ns#"
   xmlns:rdf="http://www.w3.org/1999/02/22-rdf-syntax-ns#"
   xmlns:svg="http://www.w3.org/2000/svg"
   xmlns="http://www.w3.org/2000/svg"
   xmlns:xlink="http://www.w3.org/1999/xlink"
   xmlns:sodipodi="http://sodipodi.sourceforge.net/DTD/sodipodi-0.dtd"
   xmlns:inkscape="http://www.inkscape.org/namespaces/inkscape"
   width="647.43573"
   height="643.33185"
   id="svg2"
   version="1.1"
   inkscape:version="0.48.1 "
   sodipodi:docname="ZZ1.svg">
  <defs
     id="defs4">
    <inkscape:perspective
       sodipodi:type="inkscape:persp3d"
       inkscape:vp_x="0 : 526.18109 : 1"
       inkscape:vp_y="0 : 1000 : 0"
       inkscape:vp_z="744.09448 : 526.18109 : 1"
       inkscape:persp3d-origin="372.04724 : 350.78739 : 1"
       id="perspective10" />
    <inkscape:perspective
       id="perspective2824"
       inkscape:persp3d-origin="0.5 : 0.33333333 : 1"
       inkscape:vp_z="1 : 0.5 : 1"
       inkscape:vp_y="0 : 1000 : 0"
       inkscape:vp_x="0 : 0.5 : 1"
       sodipodi:type="inkscape:persp3d" />
    <marker
       style="overflow:visible"
       id="Arrow1Mend"
       refX="0"
       refY="0"
       orient="auto"
       inkscape:stockid="Arrow1Mend">
      <path
         transform="matrix(-0.4,0,0,-0.4,-4,0)"
         style="fill-rule:evenodd;stroke:#000000;stroke-width:1pt;marker-start:none"
         d="M 0,0 5,-5 -12.5,0 5,5 0,0 z"
         id="path9680"
         inkscape:connector-curvature="0" />
    </marker>
    <marker
       style="overflow:visible"
       id="Arrow1Send"
       refX="0"
       refY="0"
       orient="auto"
       inkscape:stockid="Arrow1Send">
      <path
         transform="matrix(-0.2,0,0,-0.2,-1.2,0)"
         style="fill-rule:evenodd;stroke:#000000;stroke-width:1pt;marker-start:none"
         d="M 0,0 5,-5 -12.5,0 5,5 0,0 z"
         id="path2976"
         inkscape:connector-curvature="0" />
    </marker>
    <marker
       style="overflow:visible"
       id="Arrow1Sstart"
       refX="0"
       refY="0"
       orient="auto"
       inkscape:stockid="Arrow1Sstart">
      <path
         transform="matrix(0.2,0,0,0.2,1.2,0)"
         style="fill-rule:evenodd;stroke:#000000;stroke-width:1pt;marker-start:none"
         d="M 0,0 5,-5 -12.5,0 5,5 0,0 z"
         id="path2979"
         inkscape:connector-curvature="0" />
    </marker>
    <inkscape:perspective
       id="perspective2902"
       inkscape:persp3d-origin="198 : 184 : 1"
       inkscape:vp_z="396 : 276 : 1"
       inkscape:vp_y="0 : 1000 : 0"
       inkscape:vp_x="0 : 276 : 1"
       sodipodi:type="inkscape:persp3d" />
    <inkscape:perspective
       id="perspective3740"
       inkscape:persp3d-origin="0.5 : 0.33333333 : 1"
       inkscape:vp_z="1 : 0.5 : 1"
       inkscape:vp_y="0 : 1000 : 0"
       inkscape:vp_x="0 : 0.5 : 1"
       sodipodi:type="inkscape:persp3d" />
    <inkscape:perspective
       id="perspective3824"
       inkscape:persp3d-origin="0.5 : 0.33333333 : 1"
       inkscape:vp_z="1 : 0.5 : 1"
       inkscape:vp_y="0 : 1000 : 0"
       inkscape:vp_x="0 : 0.5 : 1"
       sodipodi:type="inkscape:persp3d" />
    <inkscape:perspective
       id="perspective3849"
       inkscape:persp3d-origin="0.5 : 0.33333333 : 1"
       inkscape:vp_z="1 : 0.5 : 1"
       inkscape:vp_y="0 : 1000 : 0"
       inkscape:vp_x="0 : 0.5 : 1"
       sodipodi:type="inkscape:persp3d" />
    <inkscape:perspective
       id="perspective3909"
       inkscape:persp3d-origin="0.5 : 0.33333333 : 1"
       inkscape:vp_z="1 : 0.5 : 1"
       inkscape:vp_y="0 : 1000 : 0"
       inkscape:vp_x="0 : 0.5 : 1"
       sodipodi:type="inkscape:persp3d" />
    <inkscape:perspective
       id="perspective3931"
       inkscape:persp3d-origin="0.5 : 0.33333333 : 1"
       inkscape:vp_z="1 : 0.5 : 1"
       inkscape:vp_y="0 : 1000 : 0"
       inkscape:vp_x="0 : 0.5 : 1"
       sodipodi:type="inkscape:persp3d" />
    <inkscape:perspective
       id="perspective3953"
       inkscape:persp3d-origin="0.5 : 0.33333333 : 1"
       inkscape:vp_z="1 : 0.5 : 1"
       inkscape:vp_y="0 : 1000 : 0"
       inkscape:vp_x="0 : 0.5 : 1"
       sodipodi:type="inkscape:persp3d" />
    <inkscape:perspective
       id="perspective3975"
       inkscape:persp3d-origin="0.5 : 0.33333333 : 1"
       inkscape:vp_z="1 : 0.5 : 1"
       inkscape:vp_y="0 : 1000 : 0"
       inkscape:vp_x="0 : 0.5 : 1"
       sodipodi:type="inkscape:persp3d" />
    <inkscape:perspective
       id="perspective3997"
       inkscape:persp3d-origin="0.5 : 0.33333333 : 1"
       inkscape:vp_z="1 : 0.5 : 1"
       inkscape:vp_y="0 : 1000 : 0"
       inkscape:vp_x="0 : 0.5 : 1"
       sodipodi:type="inkscape:persp3d" />
    <inkscape:perspective
       id="perspective4036"
       inkscape:persp3d-origin="0.5 : 0.33333333 : 1"
       inkscape:vp_z="1 : 0.5 : 1"
       inkscape:vp_y="0 : 1000 : 0"
       inkscape:vp_x="0 : 0.5 : 1"
       sodipodi:type="inkscape:persp3d" />
    <inkscape:perspective
       id="perspective4058"
       inkscape:persp3d-origin="0.5 : 0.33333333 : 1"
       inkscape:vp_z="1 : 0.5 : 1"
       inkscape:vp_y="0 : 1000 : 0"
       inkscape:vp_x="0 : 0.5 : 1"
       sodipodi:type="inkscape:persp3d" />
    <inkscape:perspective
       id="perspective4082"
       inkscape:persp3d-origin="0.5 : 0.33333333 : 1"
       inkscape:vp_z="1 : 0.5 : 1"
       inkscape:vp_y="0 : 1000 : 0"
       inkscape:vp_x="0 : 0.5 : 1"
       sodipodi:type="inkscape:persp3d" />
    <inkscape:perspective
       id="perspective4104"
       inkscape:persp3d-origin="0.5 : 0.33333333 : 1"
       inkscape:vp_z="1 : 0.5 : 1"
       inkscape:vp_y="0 : 1000 : 0"
       inkscape:vp_x="0 : 0.5 : 1"
       sodipodi:type="inkscape:persp3d" />
    <inkscape:perspective
       id="perspective4126"
       inkscape:persp3d-origin="0.5 : 0.33333333 : 1"
       inkscape:vp_z="1 : 0.5 : 1"
       inkscape:vp_y="0 : 1000 : 0"
       inkscape:vp_x="0 : 0.5 : 1"
       sodipodi:type="inkscape:persp3d" />
    <inkscape:perspective
       id="perspective4311"
       inkscape:persp3d-origin="0.5 : 0.33333333 : 1"
       inkscape:vp_z="1 : 0.5 : 1"
       inkscape:vp_y="0 : 1000 : 0"
       inkscape:vp_x="0 : 0.5 : 1"
       sodipodi:type="inkscape:persp3d" />
    <inkscape:perspective
       id="perspective4333"
       inkscape:persp3d-origin="0.5 : 0.33333333 : 1"
       inkscape:vp_z="1 : 0.5 : 1"
       inkscape:vp_y="0 : 1000 : 0"
       inkscape:vp_x="0 : 0.5 : 1"
       sodipodi:type="inkscape:persp3d" />
    <inkscape:perspective
       id="perspective4355"
       inkscape:persp3d-origin="0.5 : 0.33333333 : 1"
       inkscape:vp_z="1 : 0.5 : 1"
       inkscape:vp_y="0 : 1000 : 0"
       inkscape:vp_x="0 : 0.5 : 1"
       sodipodi:type="inkscape:persp3d" />
    <inkscape:perspective
       id="perspective4377"
       inkscape:persp3d-origin="0.5 : 0.33333333 : 1"
       inkscape:vp_z="1 : 0.5 : 1"
       inkscape:vp_y="0 : 1000 : 0"
       inkscape:vp_x="0 : 0.5 : 1"
       sodipodi:type="inkscape:persp3d" />
    <inkscape:perspective
       id="perspective4399"
       inkscape:persp3d-origin="0.5 : 0.33333333 : 1"
       inkscape:vp_z="1 : 0.5 : 1"
       inkscape:vp_y="0 : 1000 : 0"
       inkscape:vp_x="0 : 0.5 : 1"
       sodipodi:type="inkscape:persp3d" />
    <inkscape:perspective
       id="perspective4421"
       inkscape:persp3d-origin="0.5 : 0.33333333 : 1"
       inkscape:vp_z="1 : 0.5 : 1"
       inkscape:vp_y="0 : 1000 : 0"
       inkscape:vp_x="0 : 0.5 : 1"
       sodipodi:type="inkscape:persp3d" />
    <inkscape:perspective
       id="perspective4443"
       inkscape:persp3d-origin="0.5 : 0.33333333 : 1"
       inkscape:vp_z="1 : 0.5 : 1"
       inkscape:vp_y="0 : 1000 : 0"
       inkscape:vp_x="0 : 0.5 : 1"
       sodipodi:type="inkscape:persp3d" />
    <inkscape:perspective
       id="perspective4465"
       inkscape:persp3d-origin="0.5 : 0.33333333 : 1"
       inkscape:vp_z="1 : 0.5 : 1"
       inkscape:vp_y="0 : 1000 : 0"
       inkscape:vp_x="0 : 0.5 : 1"
       sodipodi:type="inkscape:persp3d" />
    <inkscape:perspective
       id="perspective4489"
       inkscape:persp3d-origin="0.5 : 0.33333333 : 1"
       inkscape:vp_z="1 : 0.5 : 1"
       inkscape:vp_y="0 : 1000 : 0"
       inkscape:vp_x="0 : 0.5 : 1"
       sodipodi:type="inkscape:persp3d" />
    <inkscape:perspective
       id="perspective4511"
       inkscape:persp3d-origin="0.5 : 0.33333333 : 1"
       inkscape:vp_z="1 : 0.5 : 1"
       inkscape:vp_y="0 : 1000 : 0"
       inkscape:vp_x="0 : 0.5 : 1"
       sodipodi:type="inkscape:persp3d" />
    <inkscape:perspective
       id="perspective4533"
       inkscape:persp3d-origin="0.5 : 0.33333333 : 1"
       inkscape:vp_z="1 : 0.5 : 1"
       inkscape:vp_y="0 : 1000 : 0"
       inkscape:vp_x="0 : 0.5 : 1"
       sodipodi:type="inkscape:persp3d" />
    <inkscape:perspective
       id="perspective4555"
       inkscape:persp3d-origin="0.5 : 0.33333333 : 1"
       inkscape:vp_z="1 : 0.5 : 1"
       inkscape:vp_y="0 : 1000 : 0"
       inkscape:vp_x="0 : 0.5 : 1"
       sodipodi:type="inkscape:persp3d" />
    <inkscape:perspective
       id="perspective4577"
       inkscape:persp3d-origin="0.5 : 0.33333333 : 1"
       inkscape:vp_z="1 : 0.5 : 1"
       inkscape:vp_y="0 : 1000 : 0"
       inkscape:vp_x="0 : 0.5 : 1"
       sodipodi:type="inkscape:persp3d" />
    <inkscape:perspective
       id="perspective4599"
       inkscape:persp3d-origin="0.5 : 0.33333333 : 1"
       inkscape:vp_z="1 : 0.5 : 1"
       inkscape:vp_y="0 : 1000 : 0"
       inkscape:vp_x="0 : 0.5 : 1"
       sodipodi:type="inkscape:persp3d" />
    <inkscape:perspective
       id="perspective4621"
       inkscape:persp3d-origin="0.5 : 0.33333333 : 1"
       inkscape:vp_z="1 : 0.5 : 1"
       inkscape:vp_y="0 : 1000 : 0"
       inkscape:vp_x="0 : 0.5 : 1"
       sodipodi:type="inkscape:persp3d" />
    <inkscape:perspective
       id="perspective4643"
       inkscape:persp3d-origin="0.5 : 0.33333333 : 1"
       inkscape:vp_z="1 : 0.5 : 1"
       inkscape:vp_y="0 : 1000 : 0"
       inkscape:vp_x="0 : 0.5 : 1"
       sodipodi:type="inkscape:persp3d" />
    <inkscape:perspective
       id="perspective4665"
       inkscape:persp3d-origin="0.5 : 0.33333333 : 1"
       inkscape:vp_z="1 : 0.5 : 1"
       inkscape:vp_y="0 : 1000 : 0"
       inkscape:vp_x="0 : 0.5 : 1"
       sodipodi:type="inkscape:persp3d" />
    <inkscape:perspective
       id="perspective4687"
       inkscape:persp3d-origin="0.5 : 0.33333333 : 1"
       inkscape:vp_z="1 : 0.5 : 1"
       inkscape:vp_y="0 : 1000 : 0"
       inkscape:vp_x="0 : 0.5 : 1"
       sodipodi:type="inkscape:persp3d" />
    <inkscape:perspective
       id="perspective4709"
       inkscape:persp3d-origin="0.5 : 0.33333333 : 1"
       inkscape:vp_z="1 : 0.5 : 1"
       inkscape:vp_y="0 : 1000 : 0"
       inkscape:vp_x="0 : 0.5 : 1"
       sodipodi:type="inkscape:persp3d" />
    <inkscape:perspective
       id="perspective4731"
       inkscape:persp3d-origin="0.5 : 0.33333333 : 1"
       inkscape:vp_z="1 : 0.5 : 1"
       inkscape:vp_y="0 : 1000 : 0"
       inkscape:vp_x="0 : 0.5 : 1"
       sodipodi:type="inkscape:persp3d" />
    <inkscape:perspective
       id="perspective5656"
       inkscape:persp3d-origin="0.5 : 0.33333333 : 1"
       inkscape:vp_z="1 : 0.5 : 1"
       inkscape:vp_y="0 : 1000 : 0"
       inkscape:vp_x="0 : 0.5 : 1"
       sodipodi:type="inkscape:persp3d" />
    <inkscape:perspective
       id="perspective5670"
       inkscape:persp3d-origin="0.5 : 0.33333333 : 1"
       inkscape:vp_z="1 : 0.5 : 1"
       inkscape:vp_y="0 : 1000 : 0"
       inkscape:vp_x="0 : 0.5 : 1"
       sodipodi:type="inkscape:persp3d" />
  </defs>
  <sodipodi:namedview
     id="base"
     pagecolor="#ffffff"
     bordercolor="#666666"
     borderopacity="1.0"
     inkscape:pageopacity="0.0"
     inkscape:pageshadow="2"
     inkscape:zoom="0.81149194"
     inkscape:cx="172.18111"
     inkscape:cy="289.5651"
     inkscape:document-units="px"
     inkscape:current-layer="g3544"
     showgrid="false"
     inkscape:snap-nodes="false"
     inkscape:object-paths="true"
     inkscape:window-width="1280"
     inkscape:window-height="1004"
     inkscape:window-x="-8"
     inkscape:window-y="-8"
     inkscape:window-maximized="1"
     height="744.09px"
     fit-margin-top="0"
     fit-margin-left="0"
     fit-margin-right="0"
     fit-margin-bottom="0" />
  <metadata
     id="metadata7">
    <rdf:RDF>
      <cc:Work
         rdf:about="">
        <dc:format>image/svg+xml</dc:format>
        <dc:type
           rdf:resource="http://purl.org/dc/dcmitype/StillImage" />
        <dc:title />
      </cc:Work>
    </rdf:RDF>
  </metadata>
  <g
     inkscape:label="Vrstva 1"
     inkscape:groupmode="layer"
     id="layer1"
     transform="translate(-47.9722,-358.40594)"
     style="display:inline">
    <g
       id="g3544">
      <g
         id="g3532">
        <g
           id="g3511">
          <g
             id="g3508">
            <use
               x="0"
               y="0"
               xlink:href="#use4618"
               id="use4620"
               transform="matrix(-1,0,0,1,743.38016,0)"
               width="744.09448"
               height="744.09003"
               style="stroke:none" />
          </g>
          <use
             height="744.09003"
             width="744.09448"
             transform="matrix(0,1,-1,0,1053.8139,309.87352)"
             id="use4618"
             xlink:href="#g4593"
             y="0"
             x="0" />
        </g>
        <g
           id="g3525">
          <g
             id="g3505">
            <use
               x="0"
               y="0"
               xlink:href="#g4593"
               id="use4603"
               width="744.09448"
               height="744.09003"
               transform="matrix(1,0,0,-1,0.74080582,1360.1437)" />
          </g>
          <g
             transform="translate(-292.95054,144.03094)"
             id="g4593">
            <path
               sodipodi:nodetypes="ccccc"
               id="path3795"
               d="m 618.99669,455.72498 -59.84623,-234.7814 210.99634,0 -59.4321,234.7814 -91.71801,0 z"
               style="fill:#c70069;fill-opacity:1;stroke:none"
               inkscape:connector-curvature="0" />
            <path
               style="font-size:medium;font-style:normal;font-variant:normal;font-weight:normal;font-stretch:normal;text-indent:0;text-align:start;text-decoration:none;line-height:normal;letter-spacing:normal;word-spacing:normal;text-transform:none;direction:ltr;block-progression:tb;writing-mode:lr-tb;text-anchor:start;color:#000000;fill:#f9e80b;fill-opacity:1;fill-rule:nonzero;stroke:none;stroke-width:0.50000000000000000;marker:none;visibility:visible;display:inline;overflow:visible;enable-background:accumulate;font-family:AlArabiya;-inkscape-font-specification:AlArabiya"
               d="m 550.6875,214.375 2.09375,8.1875 59.84375,234.78125 1.25,4.96875 5.125,0 91.71875,0 5.125,0 1.25,-4.96875 59.4375,-234.78125 2.0625,-8.1875 -8.4375,0 -211,0 -8.46875,0 z m 16.9375,13.15625 194.0625,0 -56.09375,221.625 -81.46875,0 -56.5,-221.625 z"
               id="path3797"
               inkscape:connector-curvature="0" />
          </g>
        </g>
      </g>
      <g
         transform="translate(-0.140665,-1.4285714)"
         id="g3768"
         style="fill:#f9e80b;fill-opacity:1">
        <g
           id="g4745"
           transform="matrix(2.0254616,0,0,2.0254616,-274.11308,236.17866)"
           style="fill:#f9e80b;fill-opacity:1;stroke:#000000;stroke-width:0.50000000000000000;stroke-miterlimit:4;stroke-opacity:1;stroke-dasharray:none">
          <path
             sodipodi:nodetypes="czzcc"
             id="path4272-4"
             d="m 378.54185,227.60406 c 0,0 -0.34298,5.78893 -0.39999,9.24883 -0.057,3.4599 6.62266,2.73865 6.65113,-0.26786 0.0285,-3.00663 0.10947,-8.57634 0.10947,-8.57634 0,0 -6.36061,-0.40463 -6.36061,-0.40463 z"
             style="fill:#f9e80b;fill-opacity:1;stroke:#000000;stroke-width:0.50000000000000000;stroke-linecap:butt;stroke-linejoin:miter;stroke-miterlimit:4;stroke-opacity:1;stroke-dasharray:none"
             inkscape:connector-curvature="0" />
          <path
             sodipodi:nodetypes="czccc"
             id="path4272-9-6-2-5-5-8"
             d="m 383.33099,236.92453 c 0.98827,4.05426 5.80188,4.22241 5.73568,-0.14161 -0.0662,-4.36352 -0.36405,-11.85934 -0.36405,-11.85934 l -6.6212,0.29434 c 0,0 0.73069,7.65086 1.24957,11.70661 z"
             style="fill:#f9e80b;fill-opacity:1;stroke:#000000;stroke-width:0.50000000000000000;stroke-linecap:butt;stroke-linejoin:miter;stroke-miterlimit:4;stroke-opacity:1;stroke-dasharray:none"
             inkscape:connector-curvature="0" />
          <path
             sodipodi:nodetypes="czccc"
             id="path4272-9-6-2-5-5"
             d="m 388.6962,237.90809 c 0.63748,3.77557 5.80188,4.22242 5.73568,-0.1416 -0.0662,-4.36352 -0.36405,-11.85934 -0.36405,-11.85934 0,0 -7.02353,-0.089 -7.02353,-0.089 0.48597,4.03884 1.0332,8.0694 1.6519,12.08994 z"
             style="fill:#f9e80b;fill-opacity:1;stroke:#000000;stroke-width:0.50000000000000000;stroke-linecap:butt;stroke-linejoin:miter;stroke-miterlimit:4;stroke-opacity:1;stroke-dasharray:none"
             inkscape:connector-curvature="0" />
          <path
             sodipodi:nodetypes="czzcc"
             id="path4272-9-6-2-5"
             d="m 389.30212,226.80328 c 0,0 3.03473,9.0088 4.87176,11.83736 1.83702,2.82855 6.55949,2.39152 4.97806,-1.65683 -1.58143,-4.04834 -4.65719,-11.35426 -4.65719,-11.35426 0,0 -5.19263,1.17373 -5.19263,1.17373 z"
             style="fill:#f9e80b;fill-opacity:1;stroke:#000000;stroke-width:0.50000000000000000;stroke-linecap:butt;stroke-linejoin:miter;stroke-miterlimit:4;stroke-opacity:1;stroke-dasharray:none"
             inkscape:connector-curvature="0" />
          <path
             sodipodi:nodetypes="czzcc"
             id="path4272-9-6-2"
             d="m 393.44524,225.88871 c 0,0 3.79234,8.94567 5.62937,11.77423 1.83702,2.82855 9.71622,2.45465 7.62971,-1.27802 -2.08651,-3.73268 -7.30884,-11.73307 -7.30884,-11.73307 0,0 -5.95024,1.23686 -5.95024,1.23686 z"
             style="fill:#f9e80b;fill-opacity:1;stroke:#000000;stroke-width:0.50000000000000000;stroke-linecap:butt;stroke-linejoin:miter;stroke-miterlimit:4;stroke-opacity:1;stroke-dasharray:none"
             inkscape:connector-curvature="0" />
          <path
             sodipodi:nodetypes="cccc"
             id="path4479-2-5-6-8-2-2-4"
             d="m 404.34512,221.2122 c 0,0 9.89226,10.58595 20.0768,15.97303 -17.30854,7.51104 -28.8525,-12.69005 -28.8525,-12.69005 l 8.7757,-3.28298 z"
             style="fill:#f9e80b;fill-opacity:1;stroke:#000000;stroke-width:0.50000000000000000;stroke-linecap:butt;stroke-linejoin:miter;stroke-miterlimit:4;stroke-opacity:1;stroke-dasharray:none"
             inkscape:connector-curvature="0" />
          <path
             sodipodi:nodetypes="cccc"
             id="path4479-2-5-6-8-2-2"
             d="m 402.73519,221.36364 c 0,0 17.279,9.00759 33.08251,10.66973 -10.99509,13.00375 -38.07014,-6.62913 -38.07014,-6.62913 l 4.98763,-4.0406 z"
             style="fill:#f9e80b;fill-opacity:1;stroke:#000000;stroke-width:0.50000000000000000;stroke-linecap:butt;stroke-linejoin:miter;stroke-miterlimit:4;stroke-opacity:1;stroke-dasharray:none"
             inkscape:connector-curvature="0" />
          <path
             sodipodi:nodetypes="cccc"
             id="path4479-2-5-6-8-2"
             d="m 407.34401,219.92084 c 0,0 21.76155,7.30296 38.007,6.31345 -7.77523,12.30927 -43.05777,-1.01015 -43.05777,-1.01015 l 5.05077,-5.3033 z"
             style="fill:#f9e80b;fill-opacity:1;stroke:#000000;stroke-width:0.50000000000000000;stroke-linecap:butt;stroke-linejoin:miter;stroke-miterlimit:4;stroke-opacity:1;stroke-dasharray:none"
             inkscape:connector-curvature="0" />
          <path
             sodipodi:nodetypes="cccc"
             id="path4479-2-5-6-8"
             d="m 410.75328,216.60664 c 0,0 24.53947,2.69414 40.78492,1.70463 -4.93418,14.51898 -44.44673,4.29315 -44.44673,4.29315 l 3.66181,-5.99778 z"
             style="fill:#f9e80b;fill-opacity:1;stroke:#000000;stroke-width:0.50000000000000000;stroke-linecap:butt;stroke-linejoin:miter;stroke-miterlimit:4;stroke-opacity:1;stroke-dasharray:none"
             inkscape:connector-curvature="0" />
          <path
             sodipodi:nodetypes="cccc"
             id="path4479-2-5-6"
             d="m 411.25836,212.78527 c 0,0 29.7165,1.36832 46.21449,-1.6415 -4.55537,13.69823 -49.11869,7.07107 -49.11869,7.07107 l 2.9042,-5.42957 z"
             style="fill:#f9e80b;fill-opacity:1;stroke:#000000;stroke-width:0.50000000000000000;stroke-linecap:butt;stroke-linejoin:miter;stroke-miterlimit:4;stroke-opacity:1;stroke-dasharray:none"
             inkscape:connector-curvature="0" />
          <path
             sodipodi:nodetypes="cccc"
             id="path4479-2-5"
             d="m 416.02501,205.30327 c 0,0 31.79994,1.8734 46.27762,-1.95717 -5.06044,14.45584 -47.72972,9.97525 -47.72972,9.97525 l 1.4521,-8.01808 z"
             style="fill:#f9e80b;fill-opacity:1;stroke:#000000;stroke-width:0.50000000000000000;stroke-linecap:butt;stroke-linejoin:miter;stroke-miterlimit:4;stroke-opacity:1;stroke-dasharray:none"
             inkscape:connector-curvature="0" />
          <path
             sodipodi:nodetypes="cccc"
             id="path4479-2"
             d="m 421.48615,199.57126 c 0,0 32.81009,0.0425 46.34075,-5.05076 -5.81805,15.8448 -46.90897,12.56376 -46.90897,12.56376 l 0.56822,-7.513 z"
             style="fill:#f9e80b;fill-opacity:1;stroke:#000000;stroke-width:0.50000000000000000;stroke-linecap:butt;stroke-linejoin:miter;stroke-miterlimit:4;stroke-opacity:1;stroke-dasharray:none"
             inkscape:connector-curvature="0" />
          <path
             sodipodi:nodetypes="cccc"
             id="path4479"
             d="m 423.25392,193.35371 c 0,0 32.81009,0.0425 46.34075,-5.05076 -5.06044,13.95076 -44.95179,12.24809 -44.95179,12.24809 l -1.38896,-7.19733 z"
             style="fill:#f9e80b;fill-opacity:1;stroke:#000000;stroke-width:0.50000000000000000;stroke-linecap:butt;stroke-linejoin:miter;stroke-miterlimit:4;stroke-opacity:1;stroke-dasharray:none"
             inkscape:connector-curvature="0" />
          <path
             sodipodi:nodetypes="czzcc"
             id="path4272"
             d="m 379.4367,221.01741 c 0,0 -0.34298,5.78893 -0.39999,9.24883 -0.057,3.4599 6.62266,2.73865 6.65113,-0.26786 0.0285,-3.00663 0.10947,-8.57634 0.10947,-8.57634 0,0 -6.36061,-0.40463 -6.36061,-0.40463 z"
             style="fill:#f9e80b;fill-opacity:1;stroke:#000000;stroke-width:0.50000000000000000;stroke-linecap:butt;stroke-linejoin:miter;stroke-miterlimit:4;stroke-opacity:1;stroke-dasharray:none"
             inkscape:connector-curvature="0" />
          <path
             sodipodi:nodetypes="czzcc"
             id="path4272-9"
             d="m 382.22114,220.12142 c 0,0 1.33009,6.16774 1.71502,9.65921 0.38493,3.49147 6.96987,2.83347 6.65113,-0.26786 -0.31874,-3.10133 -3.36293,-11.00702 -3.36293,-11.00702 0,0 -5.00322,1.61567 -5.00322,1.61567 z"
             style="fill:#f9e80b;fill-opacity:1;stroke:#000000;stroke-width:0.50000000000000000;stroke-linecap:butt;stroke-linejoin:miter;stroke-miterlimit:4;stroke-opacity:1;stroke-dasharray:none"
             inkscape:connector-curvature="0" />
          <path
             sodipodi:nodetypes="czzcc"
             id="path4272-9-6"
             d="m 384.75162,220.87617 c 0,0 3.03472,4.96819 4.87175,7.79675 1.83702,2.82855 8.5798,1.94958 6.49329,-1.78309 -2.08651,-3.73268 -4.65719,-7.43992 -4.65719,-7.43992 0,0 -6.70785,1.42626 -6.70785,1.42626 z"
             style="fill:#f9e80b;fill-opacity:1;stroke:#000000;stroke-width:0.50000000000000000;stroke-linecap:butt;stroke-linejoin:miter;stroke-miterlimit:4;stroke-opacity:1;stroke-dasharray:none"
             inkscape:connector-curvature="0" />
          <path
             sodipodi:nodetypes="cccc"
             id="path4272-9-6-1"
             d="m 386.59236,219.63932 c 0,0 9.24372,13.87 20.30136,7.14916 -2.87569,-1.36514 -12.89625,-8.57634 -12.89625,-8.57634 0,0 -7.40511,1.42718 -7.40511,1.42718 z"
             style="fill:#f9e80b;fill-opacity:1;stroke:#000000;stroke-width:0.50000000000000000;stroke-linecap:butt;stroke-linejoin:miter;stroke-miterlimit:4;stroke-opacity:1;stroke-dasharray:none"
             inkscape:connector-curvature="0" />
          <path
             sodipodi:nodetypes="cccc"
             id="path4272-9-6-1-6"
             d="m 390.80235,219.42218 c 0,0 13.16957,10.9154 21.56127,4.40373 -2.87569,-1.36514 -16.96843,-6.80857 -16.96843,-6.80857 0,0 -4.59284,2.40484 -4.59284,2.40484 z"
             style="fill:#f9e80b;fill-opacity:1;stroke:#000000;stroke-width:0.50000000000000000;stroke-linecap:butt;stroke-linejoin:miter;stroke-miterlimit:4;stroke-opacity:1;stroke-dasharray:none"
             inkscape:connector-curvature="0" />
          <path
             sodipodi:nodetypes="cccc"
             id="path4272-9-6-1-6-5"
             d="m 390.4709,218.08405 c 0,0 21.69204,9.51425 27.90628,0.80505 -3.47546,-0.008 -19.55695,-2.95737 -19.55695,-2.95737 0,0 -8.34933,2.15232 -8.34933,2.15232 z"
             style="fill:#f9e80b;fill-opacity:1;stroke:#000000;stroke-width:0.50000000000000000;stroke-linecap:butt;stroke-linejoin:miter;stroke-miterlimit:4;stroke-opacity:1;stroke-dasharray:none"
             inkscape:connector-curvature="0" />
          <path
             sodipodi:nodetypes="cccc"
             id="path4272-9-6-1-6-5-3"
             d="m 424.32762,212.04272 c -3.53859,0.087 -22.36643,-0.40042 -22.36643,-0.40042 0,0 -7.68643,5.81411 -7.68643,5.81411 0,0 24.02939,3.93362 30.05286,-5.41369 z"
             style="fill:#f9e80b;fill-opacity:1;stroke:#000000;stroke-width:0.50000000000000000;stroke-linecap:butt;stroke-linejoin:miter;stroke-miterlimit:4;stroke-opacity:1;stroke-dasharray:none"
             inkscape:connector-curvature="0" />
          <path
             sodipodi:nodetypes="ccccc"
             id="path4272-9-6-1-6-5-3-4"
             d="m 400.55665,212.21967 c 0,0 24.95129,4.15198 27.87471,-6.10821 -3.63329,0.40267 -24.19733,0.01 -24.19733,0.01 l -3.67738,6.09825 0,-4e-5 z"
             style="fill:#f9e80b;fill-opacity:1;stroke:#000000;stroke-width:0.50000000000000000;stroke-linecap:butt;stroke-linejoin:miter;stroke-miterlimit:4;stroke-opacity:1;stroke-dasharray:none"
             inkscape:connector-curvature="0" />
          <path
             sodipodi:nodetypes="cccc"
             id="path4272-9-6-1-6-5-3-4-7"
             d="m 413.35717,206.9463 c 0,0 17.2594,1.9782 20.80365,-8.98083 -5.46419,1.34969 -24.76554,0.79914 -24.76554,0.79914 l 3.96189,8.18169 z"
             style="fill:#f9e80b;fill-opacity:1;stroke:#000000;stroke-width:0.50000000000000000;stroke-linecap:butt;stroke-linejoin:miter;stroke-miterlimit:4;stroke-opacity:1;stroke-dasharray:none"
             inkscape:connector-curvature="0" />
          <path
             sodipodi:nodetypes="czccccccccccccc"
             id="path3867"
             d="m 381.78572,214.50504 c 6.38041,-0.85726 11.5758,-2.56044 17.64816,-14.39777 6.08163,-11.85541 25.20413,-5.62636 40.47684,-9.03977 -4.55305,8.7657 -18.56244,8.8499 -28.75176,9.00431 0,0 5.80377,-0.15937 8.26161,0.2561 -2.05305,6.29477 -10.76499,4.88563 -10.76499,4.88563 0,0 3.5383,0.69024 6.15134,0.58379 -2.18254,6.48921 -10.36997,4.89044 -10.36997,4.89044 0,0 2.99559,0.75226 5.44512,1.33096 -3.27489,5.0395 -10.8833,4.51205 -10.8833,4.51205 0,0 4.06453,0.88719 4.06453,0.88719 0,0 -3.46753,5.24176 -23.5005,4.89516 -22.34058,-3.86107 -11.84584,-2.20327 2.22292,-7.80813 l 0,1e-5 0,3e-5 z"
             style="fill:#f9e80b;fill-opacity:1;stroke:#000000;stroke-width:0.50000000000000000;stroke-linecap:butt;stroke-linejoin:miter;stroke-miterlimit:4;stroke-opacity:1;stroke-dasharray:none"
             inkscape:connector-curvature="0" />
        </g>
        <use
           x="0"
           y="0"
           xlink:href="#g4745"
           id="use4770"
           transform="matrix(-1,0,0,1,743.66149,2.9061375e-7)"
           width="744.09448"
           height="1052.3622"
           style="stroke:#000000;stroke-width:0.50000000000000000;stroke-miterlimit:4;stroke-opacity:1;stroke-dasharray:none;fill:#f9e80b;fill-opacity:1" />
      </g>
      <g
         id="g3489">
        <g
           id="g3754"
           transform="matrix(2.0254616,0,0,2.0254616,-274.19708,245.46437)"
           style="fill:#fbf500;fill-opacity:1;stroke:#000000;stroke-width:0.5;stroke-miterlimit:4;stroke-opacity:1;stroke-dasharray:none">
          <path
             id="path3728"
             d="m 307.84399,317.57624 0.50507,-237.99096 10.60661,-11.364216 11.11167,11.364216 0,238.18222 -22.22335,-0.19126 z"
             style="fill:#f9e80b;fill-opacity:1;stroke:#000000;stroke-width:0.50000000000000000;stroke-linecap:butt;stroke-linejoin:miter;stroke-miterlimit:4;stroke-opacity:1;stroke-dasharray:none"
             sodipodi:nodetypes="cccccc"
             inkscape:connector-curvature="0" />
          <path
             id="path3730"
             d="m 318.95566,92.212187 0,223.805493"
             style="fill:#fbf500;fill-opacity:1;stroke:#000000;stroke-width:0.5;stroke-linecap:butt;stroke-linejoin:miter;stroke-miterlimit:4;stroke-opacity:1;stroke-dasharray:none"
             sodipodi:nodetypes="cc"
             inkscape:connector-curvature="0" />
        </g>
        <g
           id="g3480"
           style="fill:#f9e80b;fill-opacity:1">
          <path
             sodipodi:nodetypes="ccccc"
             id="path3760"
             d="m 356.22784,892.24787 c 0,0.90421 3.43606,71.79539 3.43606,71.79539 l 23.69067,0 2.53183,-71.79539 -29.65855,0 z"
             style="fill:#f9e80b;fill-opacity:1;stroke:#000000;stroke-width:1.01273083999999990;stroke-linecap:butt;stroke-linejoin:miter;stroke-miterlimit:4;stroke-opacity:1;stroke-dasharray:none"
             inkscape:connector-curvature="0" />
          <path
             sodipodi:nodetypes="cccccc"
             d="m 370.68621,977.59738 c 12.52959,0 -12.61079,0 -0.0812,0 12.52959,0 23.59102,-11.81174 23.95273,-20.78794 -0.18088,-4.45508 -11.42314,1.27513 -23.91212,1.27513 -12.48897,0 -23.73126,-5.73021 -23.91211,-1.27513 0.36171,8.9762 11.42314,20.78794 23.95272,20.78794 z"
             style="fill:#f9e80b;fill-opacity:1;stroke:#000000;stroke-width:1.01273083999999990;stroke-linecap:butt;stroke-miterlimit:4;stroke-opacity:1;stroke-dasharray:none;stroke-dashoffset:0"
             id="path3790"
             inkscape:connector-curvature="0" />
          <path
             sodipodi:nodetypes="cc"
             id="path3793"
             d="m 385.70755,897.31915 -28.72732,11.04897"
             style="fill:#f9e80b;stroke:#000000;stroke-width:1.01273083999999990;stroke-linecap:butt;stroke-linejoin:miter;stroke-miterlimit:4;stroke-opacity:1;stroke-dasharray:none;fill-opacity:1"
             inkscape:connector-curvature="0" />
          <path
             sodipodi:nodetypes="cc"
             style="fill:#f9e80b;stroke:#000000;stroke-width:1.01273083999999990;stroke-linecap:butt;stroke-linejoin:miter;stroke-miterlimit:4;stroke-opacity:1;stroke-dasharray:none;fill-opacity:1"
             d="m 385.28703,909.24409 -27.75887,10.55757"
             id="path3808"
             inkscape:connector-curvature="0" />
          <path
             sodipodi:nodetypes="cc"
             id="path3793-1"
             d="m 384.89586,920.33631 -26.85597,10.10024"
             style="fill:#f9e80b;stroke:#000000;stroke-width:1.01273083999999990;stroke-linecap:butt;stroke-linejoin:miter;stroke-miterlimit:4;stroke-opacity:1;stroke-dasharray:none;fill-opacity:1"
             inkscape:connector-curvature="0" />
          <path
             sodipodi:nodetypes="cc"
             style="fill:#f9e80b;stroke:#000000;stroke-width:1.01273083999999990;stroke-linecap:butt;stroke-linejoin:miter;stroke-miterlimit:4;stroke-opacity:1;stroke-dasharray:none;fill-opacity:1"
             d="m 384.50603,931.39096 -25.95101,9.72505"
             id="path3808-9"
             inkscape:connector-curvature="0" />
          <path
             sodipodi:nodetypes="cc"
             style="fill:#f9e80b;stroke:#000000;stroke-width:1.01273083999999990;stroke-linecap:butt;stroke-linejoin:miter;stroke-miterlimit:4;stroke-opacity:1;stroke-dasharray:none;fill-opacity:1"
             d="m 384.11914,942.36197 -25.04028,9.59458"
             id="path3808-9-6"
             inkscape:connector-curvature="0" />
        </g>
        <path
           style="fill:#f9e80b;fill-opacity:1;stroke:#000000;stroke-width:1.01273083999999990;stroke-linecap:butt;stroke-linejoin:miter;stroke-miterlimit:4;stroke-opacity:1;stroke-dasharray:none"
           d="m 320.60143,875.0676 0,20.25462 102.17729,0 0,-20.97799 -50.99823,10.66985 -51.17906,-9.94648 z"
           id="path3758"
           inkscape:connector-curvature="0" />
      </g>
      <path
         transform="matrix(2.0091831,0,0,2.0091831,-276.76119,232.72671)"
         d="m 383.3529,223.02695 c 0,33.47351 -27.13564,60.60915 -60.60916,60.60915 -33.47351,0 -60.60915,-27.13564 -60.60915,-60.60915 0,-33.47351 27.13564,-60.60916 60.60915,-60.60916 33.47352,0 60.60916,27.13565 60.60916,60.60916 z"
         sodipodi:ry="60.609154"
         sodipodi:rx="60.609154"
         sodipodi:cy="223.02695"
         sodipodi:cx="322.74374"
         style="fill:#001788;fill-opacity:1;stroke:none"
         sodipodi:type="arc"
         id="path4696" />
      <g
         id="g4645">
        <path
           style="fill:#f9e80b;fill-opacity:1;fill-rule:evenodd;stroke:none"
           d="m 371.69008,583.5927 c -4.53221,5.1421 -7.29411,11.87312 -7.29411,19.26109 0.26857,16.22176 2.25855,32.41058 2.43136,48.62748 0.35976,15.11377 -4.17444,29.30924 -9.6875,43.1569 -1.83703,3.8266 -3.82415,7.572 -5.81251,11.32105 l -5.85048,-1.17774 c -5.2643,-1.05245 -8.68852,-6.17069 -7.63605,-11.43499 0.92095,-4.60624 4.97524,-7.80485 9.49759,-7.826 l 2.12744,0.22795 -4.74881,-39.66178 c -1.55216,-17.66162 -10.66404,-33.15361 -24.08578,-43.23287 -2.30649,-1.7321 -4.75032,-3.31566 -7.29411,-4.71078 l 0,140.86771 32.51961,0 c 2.43153,13.19969 9.69605,24.69897 19.90687,32.59562 2.42881,1.67398 4.46324,3.88177 5.92648,6.45832 1.46321,-2.57655 3.49767,-4.78434 5.92648,-6.45832 10.2108,-7.89665 17.47534,-19.39593 19.90684,-32.59562 l 32.51964,0 0,-140.86771 c -2.54382,1.39512 -4.98764,2.97868 -7.29411,4.71078 -13.42176,10.07926 -22.53365,25.57125 -24.0858,43.23287 l -4.74878,39.66178 2.12745,-0.22795 c 4.52233,0.0213 8.57661,3.21976 9.49757,7.826 1.05247,5.2643 -2.37175,10.38254 -7.63605,11.43499 l -5.85049,1.17774 c -1.98835,-3.74905 -3.97547,-7.49445 -5.81248,-11.32105 -5.51311,-13.84766 -10.04733,-28.04313 -9.68752,-43.1569 0.17277,-16.2169 2.16279,-32.40572 2.43136,-48.62748 0,-7.38797 -2.76188,-14.11899 -7.29411,-19.26109 z m -48.62749,34.83709 c 6.2937,7.38639 10.51758,16.59096 11.77697,26.70705 l 3.91301,32.70962 c -4.9826,2.48051 -8.75982,7.03119 -10.18139,12.53676 l -5.50859,0 0,-71.95343 z m 97.25497,0 0,71.95343 -5.5086,0 c -1.42153,-5.50557 -5.1988,-10.05625 -10.18137,-12.53676 l 3.91297,-32.70962 c 1.25943,-10.11609 5.48329,-19.32066 11.777,-26.70705 z m -48.62748,65.76099 c 2.61246,8.54469 6.20672,16.65843 10.67525,24.19983 -4.2503,1.29119 -7.94945,3.80268 -10.67525,7.18008 -2.72583,-3.3774 -6.42495,-5.88889 -10.67526,-7.18008 4.46858,-7.5414 8.0628,-15.65514 10.67526,-24.19983 z m -48.62749,15.91798 5.50859,0 c 1.73679,6.71181 6.97687,12.01497 13.63849,13.86635 l 4.6728,1.06373 c -1.25121,4.53584 -1.93752,9.31485 -1.93752,14.24639 l -21.88236,0 0,-29.17647 z m 91.74637,0 5.5086,0 0,29.17647 -21.88237,0 c 0,-4.93154 -0.68631,-9.71055 -1.9375,-14.24639 l 4.6728,-1.06373 c 6.66162,-1.85138 11.90169,-7.15454 13.63847,-13.86635 z m -58.42892,17.17156 c 5.89968,0.83382 10.44729,5.87627 10.44729,12.00491 l -12.15686,0 c 0,-4.16897 0.61754,-8.18655 1.70957,-12.00491 z m 30.6201,0 c 1.09201,3.81836 1.70953,7.83594 1.70953,12.00491 l -12.15684,0 c 0,-6.12864 4.5476,-11.17109 10.44731,-12.00491 z m -31.22796,21.7304 11.05515,0 0,20.47667 c -5.36514,-5.60883 -9.2626,-12.65164 -11.05515,-20.47667 z m 20.78065,0 11.05515,0 c -1.79258,7.82503 -5.69003,14.86784 -11.05515,20.47667 l 0,-20.47667 z"
           id="path7306"
           inkscape:connector-curvature="0" />
        <path
           style="font-size:medium;font-style:normal;font-variant:normal;font-weight:normal;font-stretch:normal;text-indent:0;text-align:start;text-decoration:none;line-height:normal;letter-spacing:normal;word-spacing:normal;text-transform:none;direction:ltr;block-progression:tb;writing-mode:lr-tb;text-anchor:start;color:#000000;fill:#f9e80b;fill-opacity:1;fill-rule:nonzero;stroke:none;stroke-width:0.50000000000000000;marker:none;visibility:visible;display:inline;overflow:visible;enable-background:accumulate;font-family:AlArabiya;-inkscape-font-specification:AlArabiya"
           d="m 371.70266,552.50076 c -70.812,0 -128.39936,57.52458 -128.39936,128.33657 0,70.81199 57.58736,128.33657 128.39936,128.33657 70.81199,0 128.33657,-57.52458 128.33657,-128.33657 0,-70.81199 -57.52458,-128.33657 -128.33657,-128.33657 z m 0,13.12247 c 63.69683,0 115.1513,51.51727 115.1513,115.2141 0,63.69683 -51.45447,115.21409 -115.1513,115.21409 -63.69683,0 -115.2141,-51.51726 -115.2141,-115.21409 0,-63.69683 51.51727,-115.2141 115.2141,-115.2141 z"
           id="path2915"
           inkscape:connector-curvature="0" />
      </g>
    </g>
  </g>
</svg>
