<?xml version="1.0" encoding="UTF-8" standalone="no"?>
<!-- Created with Inkscape (http://www.inkscape.org/) -->

<svg
   xmlns:dc="http://purl.org/dc/elements/1.1/"
   xmlns:cc="http://creativecommons.org/ns#"
   xmlns:rdf="http://www.w3.org/1999/02/22-rdf-syntax-ns#"
   xmlns:svg="http://www.w3.org/2000/svg"
   xmlns="http://www.w3.org/2000/svg"
   xmlns:xlink="http://www.w3.org/1999/xlink"
   xmlns:sodipodi="http://sodipodi.sourceforge.net/DTD/sodipodi-0.dtd"
   xmlns:inkscape="http://www.inkscape.org/namespaces/inkscape"
   width="744.09448"
   height="744.09003"
   id="svg2"
   version="1.1"
   inkscape:version="0.47pre4 r22446"
   sodipodi:docname="ukraine.svg"
   style="display:inline">
  <defs
     id="defs4">
    <inkscape:perspective
       sodipodi:type="inkscape:persp3d"
       inkscape:vp_x="0 : 526.18109 : 1"
       inkscape:vp_y="0 : 1000 : 0"
       inkscape:vp_z="744.09448 : 526.18109 : 1"
       inkscape:persp3d-origin="372.04724 : 350.78739 : 1"
       id="perspective10" />
    <inkscape:perspective
       id="perspective2824"
       inkscape:persp3d-origin="0.5 : 0.33333333 : 1"
       inkscape:vp_z="1 : 0.5 : 1"
       inkscape:vp_y="0 : 1000 : 0"
       inkscape:vp_x="0 : 0.5 : 1"
       sodipodi:type="inkscape:persp3d" />
    <marker
       style="overflow:visible"
       id="Arrow1Mend"
       refX="0"
       refY="0"
       orient="auto"
       inkscape:stockid="Arrow1Mend">
      <path
         transform="matrix(-0.4,0,0,-0.4,-4,0)"
         style="fill-rule:evenodd;stroke:#000000;stroke-width:1pt;marker-start:none"
         d="M 0,0 5,-5 -12.5,0 5,5 0,0 z"
         id="path9680" />
    </marker>
    <marker
       style="overflow:visible"
       id="Arrow1Send"
       refX="0"
       refY="0"
       orient="auto"
       inkscape:stockid="Arrow1Send">
      <path
         transform="matrix(-0.2,0,0,-0.2,-1.2,0)"
         style="fill-rule:evenodd;stroke:#000000;stroke-width:1pt;marker-start:none"
         d="M 0,0 5,-5 -12.5,0 5,5 0,0 z"
         id="path2976" />
    </marker>
    <marker
       style="overflow:visible"
       id="Arrow1Sstart"
       refX="0"
       refY="0"
       orient="auto"
       inkscape:stockid="Arrow1Sstart">
      <path
         transform="matrix(0.2,0,0,0.2,1.2,0)"
         style="fill-rule:evenodd;stroke:#000000;stroke-width:1pt;marker-start:none"
         d="M 0,0 5,-5 -12.5,0 5,5 0,0 z"
         id="path2979" />
    </marker>
    <inkscape:perspective
       id="perspective2902"
       inkscape:persp3d-origin="198 : 184 : 1"
       inkscape:vp_z="396 : 276 : 1"
       inkscape:vp_y="0 : 1000 : 0"
       inkscape:vp_x="0 : 276 : 1"
       sodipodi:type="inkscape:persp3d" />
    <inkscape:perspective
       id="perspective3740"
       inkscape:persp3d-origin="0.5 : 0.33333333 : 1"
       inkscape:vp_z="1 : 0.5 : 1"
       inkscape:vp_y="0 : 1000 : 0"
       inkscape:vp_x="0 : 0.5 : 1"
       sodipodi:type="inkscape:persp3d" />
    <inkscape:perspective
       id="perspective3824"
       inkscape:persp3d-origin="0.5 : 0.33333333 : 1"
       inkscape:vp_z="1 : 0.5 : 1"
       inkscape:vp_y="0 : 1000 : 0"
       inkscape:vp_x="0 : 0.5 : 1"
       sodipodi:type="inkscape:persp3d" />
    <inkscape:perspective
       id="perspective3849"
       inkscape:persp3d-origin="0.5 : 0.33333333 : 1"
       inkscape:vp_z="1 : 0.5 : 1"
       inkscape:vp_y="0 : 1000 : 0"
       inkscape:vp_x="0 : 0.5 : 1"
       sodipodi:type="inkscape:persp3d" />
    <inkscape:perspective
       id="perspective3909"
       inkscape:persp3d-origin="0.5 : 0.33333333 : 1"
       inkscape:vp_z="1 : 0.5 : 1"
       inkscape:vp_y="0 : 1000 : 0"
       inkscape:vp_x="0 : 0.5 : 1"
       sodipodi:type="inkscape:persp3d" />
    <inkscape:perspective
       id="perspective3931"
       inkscape:persp3d-origin="0.5 : 0.33333333 : 1"
       inkscape:vp_z="1 : 0.5 : 1"
       inkscape:vp_y="0 : 1000 : 0"
       inkscape:vp_x="0 : 0.5 : 1"
       sodipodi:type="inkscape:persp3d" />
    <inkscape:perspective
       id="perspective3953"
       inkscape:persp3d-origin="0.5 : 0.33333333 : 1"
       inkscape:vp_z="1 : 0.5 : 1"
       inkscape:vp_y="0 : 1000 : 0"
       inkscape:vp_x="0 : 0.5 : 1"
       sodipodi:type="inkscape:persp3d" />
    <inkscape:perspective
       id="perspective3975"
       inkscape:persp3d-origin="0.5 : 0.33333333 : 1"
       inkscape:vp_z="1 : 0.5 : 1"
       inkscape:vp_y="0 : 1000 : 0"
       inkscape:vp_x="0 : 0.5 : 1"
       sodipodi:type="inkscape:persp3d" />
    <inkscape:perspective
       id="perspective3997"
       inkscape:persp3d-origin="0.5 : 0.33333333 : 1"
       inkscape:vp_z="1 : 0.5 : 1"
       inkscape:vp_y="0 : 1000 : 0"
       inkscape:vp_x="0 : 0.5 : 1"
       sodipodi:type="inkscape:persp3d" />
    <inkscape:perspective
       id="perspective4036"
       inkscape:persp3d-origin="0.5 : 0.33333333 : 1"
       inkscape:vp_z="1 : 0.5 : 1"
       inkscape:vp_y="0 : 1000 : 0"
       inkscape:vp_x="0 : 0.5 : 1"
       sodipodi:type="inkscape:persp3d" />
    <inkscape:perspective
       id="perspective4058"
       inkscape:persp3d-origin="0.5 : 0.33333333 : 1"
       inkscape:vp_z="1 : 0.5 : 1"
       inkscape:vp_y="0 : 1000 : 0"
       inkscape:vp_x="0 : 0.5 : 1"
       sodipodi:type="inkscape:persp3d" />
    <inkscape:perspective
       id="perspective4082"
       inkscape:persp3d-origin="0.5 : 0.33333333 : 1"
       inkscape:vp_z="1 : 0.5 : 1"
       inkscape:vp_y="0 : 1000 : 0"
       inkscape:vp_x="0 : 0.5 : 1"
       sodipodi:type="inkscape:persp3d" />
    <inkscape:perspective
       id="perspective4104"
       inkscape:persp3d-origin="0.5 : 0.33333333 : 1"
       inkscape:vp_z="1 : 0.5 : 1"
       inkscape:vp_y="0 : 1000 : 0"
       inkscape:vp_x="0 : 0.5 : 1"
       sodipodi:type="inkscape:persp3d" />
    <inkscape:perspective
       id="perspective4126"
       inkscape:persp3d-origin="0.5 : 0.33333333 : 1"
       inkscape:vp_z="1 : 0.5 : 1"
       inkscape:vp_y="0 : 1000 : 0"
       inkscape:vp_x="0 : 0.5 : 1"
       sodipodi:type="inkscape:persp3d" />
    <inkscape:perspective
       id="perspective4311"
       inkscape:persp3d-origin="0.5 : 0.33333333 : 1"
       inkscape:vp_z="1 : 0.5 : 1"
       inkscape:vp_y="0 : 1000 : 0"
       inkscape:vp_x="0 : 0.5 : 1"
       sodipodi:type="inkscape:persp3d" />
    <inkscape:perspective
       id="perspective4333"
       inkscape:persp3d-origin="0.5 : 0.33333333 : 1"
       inkscape:vp_z="1 : 0.5 : 1"
       inkscape:vp_y="0 : 1000 : 0"
       inkscape:vp_x="0 : 0.5 : 1"
       sodipodi:type="inkscape:persp3d" />
    <inkscape:perspective
       id="perspective4355"
       inkscape:persp3d-origin="0.5 : 0.33333333 : 1"
       inkscape:vp_z="1 : 0.5 : 1"
       inkscape:vp_y="0 : 1000 : 0"
       inkscape:vp_x="0 : 0.5 : 1"
       sodipodi:type="inkscape:persp3d" />
    <inkscape:perspective
       id="perspective4377"
       inkscape:persp3d-origin="0.5 : 0.33333333 : 1"
       inkscape:vp_z="1 : 0.5 : 1"
       inkscape:vp_y="0 : 1000 : 0"
       inkscape:vp_x="0 : 0.5 : 1"
       sodipodi:type="inkscape:persp3d" />
    <inkscape:perspective
       id="perspective4399"
       inkscape:persp3d-origin="0.5 : 0.33333333 : 1"
       inkscape:vp_z="1 : 0.5 : 1"
       inkscape:vp_y="0 : 1000 : 0"
       inkscape:vp_x="0 : 0.5 : 1"
       sodipodi:type="inkscape:persp3d" />
    <inkscape:perspective
       id="perspective4421"
       inkscape:persp3d-origin="0.5 : 0.33333333 : 1"
       inkscape:vp_z="1 : 0.5 : 1"
       inkscape:vp_y="0 : 1000 : 0"
       inkscape:vp_x="0 : 0.5 : 1"
       sodipodi:type="inkscape:persp3d" />
    <inkscape:perspective
       id="perspective4443"
       inkscape:persp3d-origin="0.5 : 0.33333333 : 1"
       inkscape:vp_z="1 : 0.5 : 1"
       inkscape:vp_y="0 : 1000 : 0"
       inkscape:vp_x="0 : 0.5 : 1"
       sodipodi:type="inkscape:persp3d" />
    <inkscape:perspective
       id="perspective4465"
       inkscape:persp3d-origin="0.5 : 0.33333333 : 1"
       inkscape:vp_z="1 : 0.5 : 1"
       inkscape:vp_y="0 : 1000 : 0"
       inkscape:vp_x="0 : 0.5 : 1"
       sodipodi:type="inkscape:persp3d" />
    <inkscape:perspective
       id="perspective4489"
       inkscape:persp3d-origin="0.5 : 0.33333333 : 1"
       inkscape:vp_z="1 : 0.5 : 1"
       inkscape:vp_y="0 : 1000 : 0"
       inkscape:vp_x="0 : 0.5 : 1"
       sodipodi:type="inkscape:persp3d" />
    <inkscape:perspective
       id="perspective4511"
       inkscape:persp3d-origin="0.5 : 0.33333333 : 1"
       inkscape:vp_z="1 : 0.5 : 1"
       inkscape:vp_y="0 : 1000 : 0"
       inkscape:vp_x="0 : 0.5 : 1"
       sodipodi:type="inkscape:persp3d" />
    <inkscape:perspective
       id="perspective4533"
       inkscape:persp3d-origin="0.5 : 0.33333333 : 1"
       inkscape:vp_z="1 : 0.5 : 1"
       inkscape:vp_y="0 : 1000 : 0"
       inkscape:vp_x="0 : 0.5 : 1"
       sodipodi:type="inkscape:persp3d" />
    <inkscape:perspective
       id="perspective4555"
       inkscape:persp3d-origin="0.5 : 0.33333333 : 1"
       inkscape:vp_z="1 : 0.5 : 1"
       inkscape:vp_y="0 : 1000 : 0"
       inkscape:vp_x="0 : 0.5 : 1"
       sodipodi:type="inkscape:persp3d" />
    <inkscape:perspective
       id="perspective4577"
       inkscape:persp3d-origin="0.5 : 0.33333333 : 1"
       inkscape:vp_z="1 : 0.5 : 1"
       inkscape:vp_y="0 : 1000 : 0"
       inkscape:vp_x="0 : 0.5 : 1"
       sodipodi:type="inkscape:persp3d" />
    <inkscape:perspective
       id="perspective4599"
       inkscape:persp3d-origin="0.5 : 0.33333333 : 1"
       inkscape:vp_z="1 : 0.5 : 1"
       inkscape:vp_y="0 : 1000 : 0"
       inkscape:vp_x="0 : 0.5 : 1"
       sodipodi:type="inkscape:persp3d" />
    <inkscape:perspective
       id="perspective4621"
       inkscape:persp3d-origin="0.5 : 0.33333333 : 1"
       inkscape:vp_z="1 : 0.5 : 1"
       inkscape:vp_y="0 : 1000 : 0"
       inkscape:vp_x="0 : 0.5 : 1"
       sodipodi:type="inkscape:persp3d" />
    <inkscape:perspective
       id="perspective4643"
       inkscape:persp3d-origin="0.5 : 0.33333333 : 1"
       inkscape:vp_z="1 : 0.5 : 1"
       inkscape:vp_y="0 : 1000 : 0"
       inkscape:vp_x="0 : 0.5 : 1"
       sodipodi:type="inkscape:persp3d" />
    <inkscape:perspective
       id="perspective4665"
       inkscape:persp3d-origin="0.5 : 0.33333333 : 1"
       inkscape:vp_z="1 : 0.5 : 1"
       inkscape:vp_y="0 : 1000 : 0"
       inkscape:vp_x="0 : 0.5 : 1"
       sodipodi:type="inkscape:persp3d" />
    <inkscape:perspective
       id="perspective4687"
       inkscape:persp3d-origin="0.5 : 0.33333333 : 1"
       inkscape:vp_z="1 : 0.5 : 1"
       inkscape:vp_y="0 : 1000 : 0"
       inkscape:vp_x="0 : 0.5 : 1"
       sodipodi:type="inkscape:persp3d" />
    <inkscape:perspective
       id="perspective4709"
       inkscape:persp3d-origin="0.5 : 0.33333333 : 1"
       inkscape:vp_z="1 : 0.5 : 1"
       inkscape:vp_y="0 : 1000 : 0"
       inkscape:vp_x="0 : 0.5 : 1"
       sodipodi:type="inkscape:persp3d" />
    <inkscape:perspective
       id="perspective4731"
       inkscape:persp3d-origin="0.5 : 0.33333333 : 1"
       inkscape:vp_z="1 : 0.5 : 1"
       inkscape:vp_y="0 : 1000 : 0"
       inkscape:vp_x="0 : 0.5 : 1"
       sodipodi:type="inkscape:persp3d" />
    <inkscape:perspective
       id="perspective5656"
       inkscape:persp3d-origin="0.5 : 0.33333333 : 1"
       inkscape:vp_z="1 : 0.5 : 1"
       inkscape:vp_y="0 : 1000 : 0"
       inkscape:vp_x="0 : 0.5 : 1"
       sodipodi:type="inkscape:persp3d" />
    <inkscape:perspective
       id="perspective5670"
       inkscape:persp3d-origin="0.5 : 0.33333333 : 1"
       inkscape:vp_z="1 : 0.5 : 1"
       inkscape:vp_y="0 : 1000 : 0"
       inkscape:vp_x="0 : 0.5 : 1"
       sodipodi:type="inkscape:persp3d" />
    <inkscape:perspective
       id="perspective5614"
       inkscape:persp3d-origin="0.5 : 0.33333333 : 1"
       inkscape:vp_z="1 : 0.5 : 1"
       inkscape:vp_y="0 : 1000 : 0"
       inkscape:vp_x="0 : 0.5 : 1"
       sodipodi:type="inkscape:persp3d" />
  </defs>
  <sodipodi:namedview
     id="base"
     pagecolor="#ffffff"
     bordercolor="#666666"
     borderopacity="1.0"
     inkscape:pageopacity="0.0"
     inkscape:pageshadow="2"
     inkscape:zoom="0.49497475"
     inkscape:cx="285.01458"
     inkscape:cy="223.65762"
     inkscape:document-units="px"
     inkscape:current-layer="layer1"
     showgrid="false"
     inkscape:snap-nodes="false"
     inkscape:object-paths="false"
     inkscape:window-width="1920"
     inkscape:window-height="1005"
     inkscape:window-x="0"
     inkscape:window-y="25"
     inkscape:window-maximized="1"
     height="744.09px" />
  <metadata
     id="metadata7">
    <rdf:RDF>
      <cc:Work
         rdf:about="">
        <dc:format>image/svg+xml</dc:format>
        <dc:type
           rdf:resource="http://purl.org/dc/dcmitype/StillImage" />
        <dc:title></dc:title>
      </cc:Work>
    </rdf:RDF>
  </metadata>
  <g
     inkscape:label="Vrstva 1"
     inkscape:groupmode="layer"
     id="layer1"
     transform="translate(0,-308.27216)"
     style="display:inline">
    <g
       style="display:inline"
       id="g3532">
      <g
         id="g3511">
        <g
           id="g3508">
          <use
             height="744.09003"
             width="744.09448"
             transform="matrix(-1,0,0,1,743.38016,0)"
             id="use4620"
             xlink:href="#use4618"
             y="0"
             x="0" />
        </g>
        <use
           x="0"
           y="0"
           xlink:href="#g4593"
           id="use4618"
           transform="matrix(0,1,-1,0,1053.8139,309.87352)"
           width="744.09448"
           height="744.09003" />
      </g>
      <g
         id="g3525">
        <g
           id="g3505">
          <use
             transform="matrix(1,0,0,-1,0.74080582,1360.1437)"
             height="744.09003"
             width="744.09448"
             id="use4603"
             xlink:href="#g4593"
             y="0"
             x="0" />
        </g>
        <g
           id="g4593"
           transform="translate(-292.95054,144.03094)">
          <path
             style="fill:#c70069;fill-opacity:1;stroke:none"
             d="m 618.99669,455.72498 -59.84623,-234.7814 210.99634,0 -59.4321,234.7814 -91.71801,0 z"
             id="path3795"
             sodipodi:nodetypes="ccccc" />
          <path
             id="path3797"
             d="m 550.6875,214.375 2.09375,8.1875 59.84375,234.78125 1.25,4.96875 5.125,0 91.71875,0 5.125,0 1.25,-4.96875 59.4375,-234.78125 2.0625,-8.1875 -8.4375,0 -211,0 -8.46875,0 z m 16.9375,13.15625 194.0625,0 -56.09375,221.625 -81.46875,0 -56.5,-221.625 z"
             style="font-size:medium;font-style:normal;font-variant:normal;font-weight:normal;font-stretch:normal;text-indent:0;text-align:start;text-decoration:none;line-height:normal;letter-spacing:normal;word-spacing:normal;text-transform:none;direction:ltr;block-progression:tb;writing-mode:lr-tb;text-anchor:start;color:#000000;fill:#fdf201;fill-opacity:1;fill-rule:nonzero;stroke:#000000;stroke-width:0.5;stroke-miterlimit:4;stroke-opacity:1;stroke-dasharray:none;marker:none;visibility:visible;display:inline;overflow:visible;enable-background:accumulate;font-family:AlArabiya;-inkscape-font-specification:AlArabiya" />
        </g>
      </g>
    </g>
    <g
       id="g5877">
      <g
         id="g5856">
        <g
           id="g3754"
           transform="matrix(1.4322176,-1.4322176,1.4322176,1.4322176,-401.51843,819.82416)"
           style="fill:#fbf500;fill-opacity:1;stroke:#000000;stroke-width:0.5;stroke-miterlimit:4;stroke-opacity:1;stroke-dasharray:none">
          <path
             id="path3728"
             d="m 307.84399,317.57624 0.41691,-224.149318 10.51844,-10.394419 11.11167,11.011562 0.17633,223.723435 -22.22335,-0.19126 z"
             style="fill:#fbf500;fill-opacity:1;stroke:#000000;stroke-width:0.5;stroke-linecap:butt;stroke-linejoin:miter;stroke-miterlimit:4;stroke-opacity:1;stroke-dasharray:none"
             sodipodi:nodetypes="cccccc" />
          <path
             id="path3730"
             d="m 319.04382,107.28812 -0.0882,208.72956"
             style="fill:#fbf500;fill-opacity:1;stroke:#000000;stroke-width:0.5;stroke-linecap:butt;stroke-linejoin:miter;stroke-miterlimit:4;stroke-opacity:1;stroke-dasharray:none"
             sodipodi:nodetypes="cc" />
        </g>
        <path
           style="fill:#fbf500;fill-opacity:1;stroke:#000000;stroke-width:1.01273084;stroke-linecap:butt;stroke-linejoin:miter;stroke-miterlimit:4;stroke-opacity:1;stroke-dasharray:none"
           d="m 501.6043,831.39143 c 0.63937,0.63937 53.19667,48.33734 53.19667,48.33734 l 16.75183,-16.75183 -48.97673,-52.55728 -20.97176,20.97176 z"
           id="path3760"
           sodipodi:nodetypes="ccccc" />
        <path
           id="path3790"
           style="fill:#fbf500;fill-opacity:1;stroke:#000000;stroke-width:1.01273084;stroke-linecap:butt;stroke-miterlimit:4;stroke-opacity:1;stroke-dasharray:none;stroke-dashoffset:0"
           d="m 568.96484,876.16189 c 8.85976,-8.85975 -8.91718,8.91718 -0.0574,0.0574 8.85976,-8.85976 8.32921,-25.03353 2.23785,-31.63643 -3.27812,-3.02232 -7.17573,8.97903 -16.00677,17.81007 -8.83104,8.83104 -20.83241,12.72867 -17.81007,16.00677 6.6029,6.09136 22.77667,6.62191 31.63642,-2.23784 z"
           sodipodi:nodetypes="cccccc" />
        <path
           style="fill:none;stroke:#000000;stroke-width:1.01273084;stroke-linecap:butt;stroke-linejoin:miter;stroke-miterlimit:4;stroke-opacity:1;stroke-dasharray:none"
           d="m 525.82371,813.90472 -13.45148,27.29655"
           id="path3793"
           sodipodi:nodetypes="cc" />
        <path
           id="path3808"
           d="m 533.19493,821.81484 -12.68411,26.78132"
           style="fill:none;stroke:#000000;stroke-width:1.01273084;stroke-linecap:butt;stroke-linejoin:miter;stroke-miterlimit:4;stroke-opacity:1;stroke-dasharray:none"
           sodipodi:nodetypes="cc" />
        <path
           style="fill:none;stroke:#000000;stroke-width:1.01273084;stroke-linecap:butt;stroke-linejoin:miter;stroke-miterlimit:4;stroke-opacity:1;stroke-dasharray:none"
           d="m 539.94585,829.05929 -11.95551,26.33005"
           id="path3793-1"
           sodipodi:nodetypes="cc" />
        <path
           id="path3808-9"
           d="m 547.24964,836.89704 -12.01317,25.07194"
           style="fill:none;stroke:#000000;stroke-width:1.01273084;stroke-linecap:butt;stroke-linejoin:miter;stroke-miterlimit:4;stroke-opacity:1;stroke-dasharray:none"
           sodipodi:nodetypes="cc" />
        <path
           id="path3808-9-6"
           d="m 553.9876,844.1276 -11.46573,24.45555"
           style="fill:none;stroke:#000000;stroke-width:1.01273084;stroke-linecap:butt;stroke-linejoin:miter;stroke-miterlimit:4;stroke-opacity:1;stroke-dasharray:none"
           sodipodi:nodetypes="cc" />
        <path
           style="fill:#fbf500;fill-opacity:1;stroke:#000000;stroke-width:1.01273084;stroke-linecap:butt;stroke-linejoin:miter;stroke-miterlimit:4;stroke-opacity:1;stroke-dasharray:none"
           d="m 464.26434,844.43482 14.32218,14.32218 72.25025,-72.25026 -14.83368,-14.83368 -28.51647,43.60592 -43.22228,29.15584 z"
           id="path3758" />
      </g>
      <use
         height="744.09003"
         width="744.09448"
         transform="matrix(-1,0,0,1,742.36628,0)"
         id="use5869"
         xlink:href="#g5856"
         y="0"
         x="0" />
    </g>
    <g
       id="g5871">
      <path
         transform="matrix(2.0091831,0,0,2.0091831,-276.76119,232.72671)"
         d="m 383.3529,223.02695 a 60.609154,60.609154 0 1 1 -121.21831,0 60.609154,60.609154 0 1 1 121.21831,0 z"
         sodipodi:ry="60.609154"
         sodipodi:rx="60.609154"
         sodipodi:cy="223.02695"
         sodipodi:cx="322.74374"
         style="fill:#200c61;fill-opacity:1;stroke:none"
         sodipodi:type="arc"
         id="path4696" />
      <g
         id="g4645">
        <path
           style="fill:#fbf203;fill-opacity:1;fill-rule:evenodd;stroke:none"
           d="m 371.69008,583.5927 c -4.53221,5.1421 -7.29411,11.87312 -7.29411,19.26109 0.26857,16.22176 2.25855,32.41058 2.43136,48.62748 0.35976,15.11377 -4.17444,29.30924 -9.6875,43.1569 -1.83703,3.8266 -3.82415,7.572 -5.81251,11.32105 l -5.85048,-1.17774 c -5.2643,-1.05245 -8.68852,-6.17069 -7.63605,-11.43499 0.92095,-4.60624 4.97524,-7.80485 9.49759,-7.826 l 2.12744,0.22795 -4.74881,-39.66178 c -1.55216,-17.66162 -10.66404,-33.15361 -24.08578,-43.23287 -2.30649,-1.7321 -4.75032,-3.31566 -7.29411,-4.71078 l 0,140.86771 32.51961,0 c 2.43153,13.19969 9.69605,24.69897 19.90687,32.59562 2.42881,1.67398 4.46324,3.88177 5.92648,6.45832 1.46321,-2.57655 3.49767,-4.78434 5.92648,-6.45832 10.2108,-7.89665 17.47534,-19.39593 19.90684,-32.59562 l 32.51964,0 0,-140.86771 c -2.54382,1.39512 -4.98764,2.97868 -7.29411,4.71078 -13.42176,10.07926 -22.53365,25.57125 -24.0858,43.23287 l -4.74878,39.66178 2.12745,-0.22795 c 4.52233,0.0213 8.57661,3.21976 9.49757,7.826 1.05247,5.2643 -2.37175,10.38254 -7.63605,11.43499 l -5.85049,1.17774 c -1.98835,-3.74905 -3.97547,-7.49445 -5.81248,-11.32105 -5.51311,-13.84766 -10.04733,-28.04313 -9.68752,-43.1569 0.17277,-16.2169 2.16279,-32.40572 2.43136,-48.62748 0,-7.38797 -2.76188,-14.11899 -7.29411,-19.26109 z m -48.62749,34.83709 c 6.2937,7.38639 10.51758,16.59096 11.77697,26.70705 l 3.91301,32.70962 c -4.9826,2.48051 -8.75982,7.03119 -10.18139,12.53676 l -5.50859,0 0,-71.95343 z m 97.25497,0 0,71.95343 -5.5086,0 c -1.42153,-5.50557 -5.1988,-10.05625 -10.18137,-12.53676 l 3.91297,-32.70962 c 1.25943,-10.11609 5.48329,-19.32066 11.777,-26.70705 z m -48.62748,65.76099 c 2.61246,8.54469 6.20672,16.65843 10.67525,24.19983 -4.2503,1.29119 -7.94945,3.80268 -10.67525,7.18008 -2.72583,-3.3774 -6.42495,-5.88889 -10.67526,-7.18008 4.46858,-7.5414 8.0628,-15.65514 10.67526,-24.19983 z m -48.62749,15.91798 5.50859,0 c 1.73679,6.71181 6.97687,12.01497 13.63849,13.86635 l 4.6728,1.06373 c -1.25121,4.53584 -1.93752,9.31485 -1.93752,14.24639 l -21.88236,0 0,-29.17647 z m 91.74637,0 5.5086,0 0,29.17647 -21.88237,0 c 0,-4.93154 -0.68631,-9.71055 -1.9375,-14.24639 l 4.6728,-1.06373 c 6.66162,-1.85138 11.90169,-7.15454 13.63847,-13.86635 z m -58.42892,17.17156 c 5.89968,0.83382 10.44729,5.87627 10.44729,12.00491 l -12.15686,0 c 0,-4.16897 0.61754,-8.18655 1.70957,-12.00491 z m 30.6201,0 c 1.09201,3.81836 1.70953,7.83594 1.70953,12.00491 l -12.15684,0 c 0,-6.12864 4.5476,-11.17109 10.44731,-12.00491 z m -31.22796,21.7304 11.05515,0 0,20.47667 c -5.36514,-5.60883 -9.2626,-12.65164 -11.05515,-20.47667 z m 20.78065,0 11.05515,0 c -1.79258,7.82503 -5.69003,14.86784 -11.05515,20.47667 l 0,-20.47667 z"
           id="path7306" />
        <path
           style="font-size:medium;font-style:normal;font-variant:normal;font-weight:normal;font-stretch:normal;text-indent:0;text-align:start;text-decoration:none;line-height:normal;letter-spacing:normal;word-spacing:normal;text-transform:none;direction:ltr;block-progression:tb;writing-mode:lr-tb;text-anchor:start;color:#000000;fill:#fdf201;fill-opacity:1;fill-rule:nonzero;stroke:#000000;stroke-width:0.5;stroke-miterlimit:4;stroke-opacity:1;stroke-dasharray:none;marker:none;visibility:visible;display:inline;overflow:visible;enable-background:accumulate;font-family:AlArabiya;-inkscape-font-specification:AlArabiya"
           d="m 371.70266,552.50076 c -70.812,0 -128.39936,57.52458 -128.39936,128.33657 0,70.81199 57.58736,128.33657 128.39936,128.33657 70.81199,0 128.33657,-57.52458 128.33657,-128.33657 0,-70.81199 -57.52458,-128.33657 -128.33657,-128.33657 z m 0,13.12247 c 63.69683,0 115.1513,51.51727 115.1513,115.2141 0,63.69683 -51.45447,115.21409 -115.1513,115.21409 -63.69683,0 -115.2141,-51.51726 -115.2141,-115.21409 0,-63.69683 51.51727,-115.2141 115.2141,-115.2141 z"
           id="path2915" />
      </g>
    </g>
  </g>
</svg>
