<?xml version="1.0" encoding="UTF-8" standalone="no"?>
<!-- Created with Inkscape (http://www.inkscape.org/) -->

<svg
   xmlns:dc="http://purl.org/dc/elements/1.1/"
   xmlns:cc="http://creativecommons.org/ns#"
   xmlns:rdf="http://www.w3.org/1999/02/22-rdf-syntax-ns#"
   xmlns:svg="http://www.w3.org/2000/svg"
   xmlns="http://www.w3.org/2000/svg"
   xmlns:sodipodi="http://sodipodi.sourceforge.net/DTD/sodipodi-0.dtd"
   xmlns:inkscape="http://www.inkscape.org/namespaces/inkscape"
   width="210mm"
   height="297mm"
   viewBox="0 0 744.09448819 1052.3622047"
   id="svg2"
   version="1.1"
   inkscape:version="0.91 r13725"
   sodipodi:docname="Графические элементы.svg">
  <defs
     id="defs4" />
  <sodipodi:namedview
     id="base"
     pagecolor="#ffffff"
     bordercolor="#666666"
     borderopacity="1.0"
     inkscape:pageopacity="0.0"
     inkscape:pageshadow="2"
     inkscape:zoom="1.0296497"
     inkscape:cx="337.73686"
     inkscape:cy="236.63666"
     inkscape:document-units="px"
     inkscape:current-layer="layer1"
     showgrid="false"
     inkscape:window-width="1871"
     inkscape:window-height="1056"
     inkscape:window-x="49"
     inkscape:window-y="24"
     inkscape:window-maximized="1" />
  <metadata
     id="metadata7">
    <rdf:RDF>
      <cc:Work
         rdf:about="">
        <dc:format>image/svg+xml</dc:format>
        <dc:type
           rdf:resource="http://purl.org/dc/dcmitype/StillImage" />
        <dc:title />
      </cc:Work>
    </rdf:RDF>
  </metadata>
  <g
     inkscape:label="Layer 1"
     inkscape:groupmode="layer"
     id="layer1">
    <g
       id="g5902"
       transform="translate(3.8848165,1.9424083)">
      <circle
         cy="19.862207"
         cx="63.035851"
         id="path3347"
         style="fill:#2b0000"
         r="15" />
      <g
         id="g5898">
        <rect
           style="fill:#2b0000"
           id="rect3349"
           width="30"
           height="40"
           x="48.035851"
           y="34.862206" />
        <path
           style="fill:#000000;stroke:#ffffff;stroke-opacity:1"
           d="m 3.035854,34.862205 0,40 119.999996,0 0,-40 -22.04842,0 A 39.262056,41.490742 0 0 1 63.036956,65.925737 39.262056,41.490742 0 0 1 25.062243,34.862205 l -22.026389,0 z"
           id="rect3336"
           inkscape:connector-curvature="0" />
      </g>
    </g>
    <g
       id="g5866">
      <rect
         y="69.505058"
         x="222.50027"
         height="52.142857"
         width="15"
         id="rect4223"
         style="fill:#000000" />
      <g
         style="fill:#999999;fill-opacity:1"
         transform="translate(17.142857,0.3571477)"
         id="g5832">
        <path
           inkscape:connector-curvature="0"
           id="path5830"
           d="m 152.85742,86.790771 0,10 -20,0 0,29.999999 160,0 0,-29.999999 -20,0 0,-10 -45,0 0,14.999999 a 15,15 0 0 1 -15,15 15,15 0 0 1 -15,-15 l 0,-14.999999 -45,0 z"
           style="opacity:1;fill:#999999;fill-opacity:1;stroke:#000000;stroke-opacity:1" />
        <path
           style="opacity:1;fill:#999999;fill-opacity:1;stroke:#000000;stroke-opacity:1"
           d="m 152.85742,86.790771 0,10 -20,0 0,29.999999 160,0 0,-29.999999 -20,0 0,-10 -45,0 0,14.999999 a 15,15 0 0 1 -15,15 15,15 0 0 1 -15,-15 l 0,-14.999999 -45,0 z"
           id="rect3382"
           inkscape:connector-curvature="0" />
      </g>
    </g>
    <g
       id="g5842"
       transform="translate(0,-61.071429)">
      <rect
         style="fill:#000000"
         id="rect5844"
         width="15"
         height="35"
         x="222.50027"
         y="86.647919" />
      <g
         id="g5846"
         transform="translate(17.142857,0.3571477)"
         style="fill:#999999;fill-opacity:1">
        <path
           style="opacity:1;fill:#999999;fill-opacity:1;stroke:#000000;stroke-opacity:1"
           d="m 152.85742,86.790771 0,10 -20,0 0,29.999999 160,0 0,-29.999999 -20,0 0,-10 -45,0 0,14.999999 a 15,15 0 0 1 -15,15 15,15 0 0 1 -15,-15 l 0,-14.999999 -45,0 z"
           id="path5848"
           inkscape:connector-curvature="0" />
        <path
           inkscape:connector-curvature="0"
           id="path5850"
           d="m 152.85742,86.790771 0,10 -20,0 0,29.999999 160,0 0,-29.999999 -20,0 0,-10 -45,0 0,14.999999 a 15,15 0 0 1 -15,15 15,15 0 0 1 -15,-15 l 0,-14.999999 -45,0 z"
           style="opacity:1;fill:#999999;fill-opacity:1;stroke:#000000;stroke-opacity:1" />
      </g>
    </g>
    <g
       transform="translate(-0.35714286,52.5)"
       id="g5852">
      <rect
         y="100.57649"
         x="222.50027"
         height="21.071428"
         width="15"
         id="rect5854"
         style="fill:#000000" />
      <g
         style="fill:#999999;fill-opacity:1"
         transform="translate(17.142857,0.3571477)"
         id="g5856">
        <path
           inkscape:connector-curvature="0"
           id="path5858"
           d="m 152.85742,86.790771 0,10 -20,0 0,29.999999 160,0 0,-29.999999 -20,0 0,-10 -45,0 0,14.999999 a 15,15 0 0 1 -15,15 15,15 0 0 1 -15,-15 l 0,-14.999999 -45,0 z"
           style="opacity:1;fill:#999999;fill-opacity:1;stroke:#000000;stroke-opacity:1" />
        <path
           style="opacity:1;fill:#999999;fill-opacity:1;stroke:#000000;stroke-opacity:1"
           d="m 152.85742,86.790771 0,10 -20,0 0,29.999999 160,0 0,-29.999999 -20,0 0,-10 -45,0 0,14.999999 a 15,15 0 0 1 -15,15 15,15 0 0 1 -15,-15 l 0,-14.999999 -45,0 z"
           id="path5860"
           inkscape:connector-curvature="0" />
      </g>
    </g>
    <g
       transform="translate(-1.7857143,118.92857)"
       id="g5872">
      <rect
         y="86.647919"
         x="228.50027"
         height="35"
         width="15"
         id="rect5874"
         style="fill:#000000" />
      <g
         style="fill:#999999;fill-opacity:1"
         transform="translate(17.142857,0.3571477)"
         id="g5876">
        <path
           inkscape:connector-curvature="0"
           id="path5878"
           d="m 152.85742,86.790771 0,10 -20,0 0,29.999999 160,0 0,-29.999999 -20,0 0,-10 -45,0 0,14.999999 a 15,15 0 0 1 -15,15 15,15 0 0 1 -15,-15 l 0,-14.999999 -45,0 z"
           style="opacity:1;fill:#999999;fill-opacity:1;stroke:#000000;stroke-opacity:1" />
        <path
           style="opacity:1;fill:#999999;fill-opacity:1;stroke:#000000;stroke-opacity:1"
           d="m 152.85742,86.790771 0,10 -20,0 0,29.999999 160,0 0,-29.999999 -20,0 0,-10 -45,0 0,14.999999 a 15,15 0 0 1 -15,15 15,15 0 0 1 -15,-15 l 0,-14.999999 -45,0 z"
           id="path5880"
           inkscape:connector-curvature="0" />
      </g>
    </g>
    <g
       id="g4193"
       transform="matrix(1.9999998,0,0,1.9999999,-78.175657,-234.66238)">
      <path
         inkscape:connector-curvature="0"
         id="rect3363"
         d="m 57.657857,169.22925 0,18 -12.5,0 0,32 50.000005,0 0,-32 -12.500005,0 0,-18 -25,0 z"
         style="fill:#008000;fill-opacity:1;stroke:none;stroke-width:2;stroke-linejoin:round;stroke-miterlimit:4;stroke-dasharray:12, 12;stroke-dashoffset:0;stroke-opacity:1" />
      <ellipse
         ry="4.5454545"
         rx="4.545455"
         cy="194.22925"
         cx="70.15786"
         id="path4171"
         style="fill:none;fill-opacity:1;stroke:#ffffff;stroke-width:1;stroke-linejoin:miter;stroke-miterlimit:1;stroke-dasharray:none;stroke-dashoffset:0;stroke-opacity:1" />
      <circle
         r="9.478673"
         style="fill:none;fill-opacity:1;stroke:#ffffff;stroke-width:1.04265404;stroke-linejoin:miter;stroke-miterlimit:1;stroke-dasharray:none;stroke-dashoffset:0;stroke-opacity:1"
         id="circle4173"
         cx="70.15786"
         cy="194.22925" />
      <ellipse
         ry="14.469454"
         rx="14.469455"
         cy="194.22925"
         cx="70.15786"
         id="ellipse4175"
         style="fill:none;fill-opacity:1;stroke:#ffffff;stroke-width:1.06109333;stroke-linejoin:miter;stroke-miterlimit:1;stroke-dasharray:none;stroke-dashoffset:0;stroke-opacity:1" />
      <ellipse
         ry="19.46472"
         rx="19.464722"
         style="fill:none;fill-opacity:1;stroke:#ffffff;stroke-width:1.07055962;stroke-linejoin:miter;stroke-miterlimit:1;stroke-dasharray:none;stroke-dashoffset:0;stroke-opacity:1"
         id="ellipse4177"
         cx="70.15786"
         cy="194.22925" />
      <circle
         r="24.496595"
         cy="194.22925"
         cx="70.15786"
         id="circle4191"
         style="fill:none;fill-opacity:1;stroke:#ffffff;stroke-width:1.00681007;stroke-linejoin:miter;stroke-miterlimit:1;stroke-dasharray:none;stroke-dashoffset:0;stroke-opacity:1" />
    </g>
    <path
       inkscape:connector-curvature="0"
       id="path4207"
       d="m 37.140044,235.87986 0,36 -25,0 0,64 99.999996,0 0,-64 -24.999996,0 0,-36 -50,0 z"
       style="fill:#008000;fill-opacity:1;stroke:none;stroke-width:2;stroke-linejoin:round;stroke-miterlimit:4;stroke-dasharray:12, 12;stroke-dashoffset:0;stroke-opacity:1" />
    <g
       id="g4259"
       transform="translate(0,8.9276853)">
      <circle
         r="1.7716535"
         cy="379.61182"
         cx="59.915169"
         id="path4225"
         style="fill:#ff0000;fill-opacity:1;stroke:none;stroke-width:1;stroke-linejoin:miter;stroke-miterlimit:1;stroke-dasharray:none;stroke-dashoffset:0;stroke-opacity:1" />
      <circle
         style="fill:#ff0000;fill-opacity:1;stroke:none;stroke-width:1;stroke-linejoin:miter;stroke-miterlimit:1;stroke-dasharray:none;stroke-dashoffset:0;stroke-opacity:1"
         id="circle4227"
         cx="63.692268"
         cy="388.28198"
         r="1.7716535" />
      <circle
         r="1.7716535"
         cy="378.83923"
         cx="67.898582"
         id="circle4229"
         style="fill:#ff0000;fill-opacity:1;stroke:none;stroke-width:1;stroke-linejoin:miter;stroke-miterlimit:1;stroke-dasharray:none;stroke-dashoffset:0;stroke-opacity:1" />
      <circle
         style="fill:#ff0000;fill-opacity:1;stroke:none;stroke-width:1;stroke-linejoin:miter;stroke-miterlimit:1;stroke-dasharray:none;stroke-dashoffset:0;stroke-opacity:1"
         id="circle4231"
         cx="72.791641"
         cy="385.36331"
         r="1.7716535" />
      <circle
         r="1.7716535"
         cy="372.8302"
         cx="74.165131"
         id="circle4233"
         style="fill:#ff0000;fill-opacity:1;stroke:none;stroke-width:1;stroke-linejoin:miter;stroke-miterlimit:1;stroke-dasharray:none;stroke-dashoffset:0;stroke-opacity:1" />
      <circle
         style="fill:#ff0000;fill-opacity:1;stroke:none;stroke-width:1;stroke-linejoin:miter;stroke-miterlimit:1;stroke-dasharray:none;stroke-dashoffset:0;stroke-opacity:1"
         id="circle4235"
         cx="64.035645"
         cy="368.88144"
         r="1.7716535" />
      <circle
         r="1.7716535"
         cy="369.56818"
         cx="83.092819"
         id="circle4237"
         style="fill:#ff0000;fill-opacity:1;stroke:none;stroke-width:1;stroke-linejoin:miter;stroke-miterlimit:1;stroke-dasharray:none;stroke-dashoffset:0;stroke-opacity:1" />
      <circle
         style="fill:#ff0000;fill-opacity:1;stroke:none;stroke-width:1;stroke-linejoin:miter;stroke-miterlimit:1;stroke-dasharray:none;stroke-dashoffset:0;stroke-opacity:1"
         id="circle4255"
         cx="81.891014"
         cy="377.63742"
         r="1.7716535" />
      <circle
         r="1.7716535"
         cy="358.49442"
         cx="70.645561"
         id="circle4257"
         style="fill:#ff0000;fill-opacity:1;stroke:none;stroke-width:1;stroke-linejoin:miter;stroke-miterlimit:1;stroke-dasharray:none;stroke-dashoffset:0;stroke-opacity:1" />
    </g>
    <g
       id="g4614"
       transform="translate(-48.560207,-60.214656)">
      <g
         id="g4609">
        <circle
           style="fill:#f70000;fill-opacity:0;stroke:#373737;stroke-width:1.80906701;stroke-linejoin:miter;stroke-miterlimit:1;stroke-dasharray:none;stroke-dashoffset:0;stroke-opacity:1"
           id="path4433"
           cx="277.78839"
           cy="449.05676"
           r="65.508339" />
        <circle
           r="61.782684"
           cy="449.05676"
           cx="277.78839"
           id="circle4435"
           style="fill:#f70000;fill-opacity:0;stroke:#373737;stroke-width:1.70617998;stroke-linejoin:miter;stroke-miterlimit:1;stroke-dasharray:none;stroke-dashoffset:0;stroke-opacity:1" />
        <circle
           style="fill:#f70000;fill-opacity:0;stroke:#373737;stroke-width:6.92228031;stroke-linejoin:miter;stroke-miterlimit:1;stroke-dasharray:none;stroke-dashoffset:0;stroke-opacity:1"
           id="circle4437"
           cx="277.78839"
           cy="449.05676"
           r="54.394836" />
      </g>
      <g
         id="g4482">
        <rect
           rx="0"
           y="447.61679"
           x="269.20407"
           height="35.023998"
           width="17.168629"
           id="rect4447"
           style="fill:#000000;fill-opacity:1;stroke:none;stroke-width:7.08661413;stroke-linejoin:miter;stroke-miterlimit:1;stroke-dasharray:none;stroke-dashoffset:0;stroke-opacity:1" />
        <circle
           r="33.410835"
           cy="449.05676"
           cx="277.78839"
           id="circle4439"
           style="fill:#f70000;fill-opacity:0;stroke:#000000;stroke-width:4.25185871;stroke-linejoin:miter;stroke-miterlimit:1;stroke-dasharray:none;stroke-dashoffset:0;stroke-opacity:1" />
        <path
           style="fill:#000000;fill-opacity:1;stroke:none;stroke-width:7.08661413;stroke-linejoin:miter;stroke-miterlimit:1;stroke-dasharray:none;stroke-dashoffset:0;stroke-opacity:1"
           d="m 260.2764,478.86981 c 0,0 11.58882,3.7771 17.42616,3.7771 5.83733,0 17.59784,-3.7771 17.59784,-3.7771 l 0,14.42165 c 0,0 -11.67467,3.15641 -17.512,3.15641 -5.83733,0 -17.512,-3.15641 -17.512,-3.15641 z"
           id="rect4443"
           inkscape:connector-curvature="0"
           sodipodi:nodetypes="czccscc" />
      </g>
    </g>
    <g
       id="g4587"
       transform="translate(-203.95287,80.609943)">
      <g
         id="g4582">
        <circle
           r="65.508339"
           cy="449.05676"
           cx="433.78839"
           id="circle4506"
           style="fill:#f70000;fill-opacity:0;stroke:#373737;stroke-width:1.80906701;stroke-linejoin:miter;stroke-miterlimit:1;stroke-dasharray:none;stroke-dashoffset:0;stroke-opacity:1" />
        <circle
           style="fill:#f70000;fill-opacity:0;stroke:#373737;stroke-width:1.70617998;stroke-linejoin:miter;stroke-miterlimit:1;stroke-dasharray:none;stroke-dashoffset:0;stroke-opacity:1"
           id="circle4508"
           cx="433.78839"
           cy="449.05676"
           r="61.782684" />
        <circle
           r="54.394836"
           cy="449.05676"
           cx="433.78839"
           id="circle4510"
           style="fill:#f70000;fill-opacity:0;stroke:#373737;stroke-width:7.08661413;stroke-linejoin:miter;stroke-miterlimit:1;stroke-dasharray:none;stroke-dashoffset:0;stroke-opacity:1" />
      </g>
      <g
         id="g4553">
        <rect
           style="fill:#000000;fill-opacity:1;stroke:none;stroke-width:7.08661413;stroke-linejoin:miter;stroke-miterlimit:1;stroke-dasharray:none;stroke-dashoffset:0;stroke-opacity:1"
           id="rect4514"
           width="13.283813"
           height="18.99913"
           x="427.14648"
           y="463.64166"
           rx="0" />
        <circle
           style="fill:#f70000;fill-opacity:0;stroke:#000000;stroke-width:4.25185871;stroke-linejoin:miter;stroke-miterlimit:1;stroke-dasharray:none;stroke-dashoffset:0;stroke-opacity:1"
           id="circle4516"
           cx="433.78839"
           cy="449.05676"
           r="33.410835" />
        <path
           sodipodi:nodetypes="czccscc"
           inkscape:connector-curvature="0"
           id="path4518"
           d="m 416.2764,478.86981 c 0,0 11.58882,3.7771 17.42616,3.7771 5.83733,0 17.59784,-3.7771 17.59784,-3.7771 l 0,14.42165 c 0,0 -11.67467,3.15641 -17.512,3.15641 -5.83733,0 -17.512,-3.15641 -17.512,-3.15641 z"
           style="fill:#000000;fill-opacity:1;stroke:none;stroke-width:7.08661413;stroke-linejoin:miter;stroke-miterlimit:1;stroke-dasharray:none;stroke-dashoffset:0;stroke-opacity:1" />
        <circle
           r="15.605318"
           cy="449.63269"
           cx="434.3067"
           id="circle4551"
           style="fill:#f70000;fill-opacity:0;stroke:#000000;stroke-width:7.08661413;stroke-linejoin:miter;stroke-miterlimit:1;stroke-dasharray:none;stroke-dashoffset:0;stroke-opacity:1" />
      </g>
    </g>
    <g
       id="g5882"
       transform="translate(2.3560206,179.28571)">
      <rect
         style="fill:#000000"
         id="rect5884"
         width="15"
         height="35"
         x="216.50027"
         y="86.647919" />
      <g
         id="g5886"
         transform="translate(17.142857,0.3571477)"
         style="fill:#999999;fill-opacity:1">
        <path
           style="opacity:1;fill:#999999;fill-opacity:1;stroke:#000000;stroke-opacity:1"
           d="m 152.85742,86.790771 0,10 -20,0 0,29.999999 160,0 0,-29.999999 -20,0 0,-10 -45,0 0,14.999999 a 15,15 0 0 1 -15,15 15,15 0 0 1 -15,-15 l 0,-14.999999 -45,0 z"
           id="path5888"
           inkscape:connector-curvature="0" />
        <path
           inkscape:connector-curvature="0"
           id="path5890"
           d="m 152.85742,86.790771 0,10 -20,0 0,29.999999 160,0 0,-29.999999 -20,0 0,-10 -45,0 0,14.999999 a 15,15 0 0 1 -15,15 15,15 0 0 1 -15,-15 l 0,-14.999999 -45,0 z"
           style="opacity:1;fill:#999999;fill-opacity:1;stroke:#000000;stroke-opacity:1" />
      </g>
    </g>
    <g
       transform="translate(223.37695,-370.99998)"
       id="g4624">
      <g
         id="g4626">
        <circle
           r="65.508339"
           cy="449.05676"
           cx="277.78839"
           id="circle4628"
           style="fill:#f70000;fill-opacity:0;stroke:#373737;stroke-width:1.80906701;stroke-linejoin:miter;stroke-miterlimit:1;stroke-dasharray:none;stroke-dashoffset:0;stroke-opacity:1" />
        <circle
           style="fill:#f70000;fill-opacity:0;stroke:#373737;stroke-width:1.70617998;stroke-linejoin:miter;stroke-miterlimit:1;stroke-dasharray:none;stroke-dashoffset:0;stroke-opacity:1"
           id="circle4630"
           cx="277.78839"
           cy="449.05676"
           r="61.782684" />
        <circle
           r="54.394836"
           cy="449.05676"
           cx="277.78839"
           id="circle4632"
           style="fill:#f70000;fill-opacity:0;stroke:#373737;stroke-width:6.92228031;stroke-linejoin:miter;stroke-miterlimit:1;stroke-dasharray:none;stroke-dashoffset:0;stroke-opacity:1" />
      </g>
      <g
         id="g4634">
        <rect
           style="fill:#000000;fill-opacity:1;stroke:none;stroke-width:7.08661413;stroke-linejoin:miter;stroke-miterlimit:1;stroke-dasharray:none;stroke-dashoffset:0;stroke-opacity:1"
           id="rect4636"
           width="17.168629"
           height="35.023998"
           x="269.20407"
           y="447.61679"
           rx="0" />
        <circle
           style="fill:#f70000;fill-opacity:0;stroke:#000000;stroke-width:4.25185871;stroke-linejoin:miter;stroke-miterlimit:1;stroke-dasharray:none;stroke-dashoffset:0;stroke-opacity:1"
           id="circle4638"
           cx="277.78839"
           cy="449.05676"
           r="33.410835" />
        <path
           sodipodi:nodetypes="czccscc"
           inkscape:connector-curvature="0"
           id="path4640"
           d="m 260.2764,478.86981 c 0,0 11.58882,3.7771 17.42616,3.7771 5.83733,0 17.59784,-3.7771 17.59784,-3.7771 l 0,14.42165 c 0,0 -11.67467,3.15641 -17.512,3.15641 -5.83733,0 -17.512,-3.15641 -17.512,-3.15641 z"
           style="fill:#000000;fill-opacity:1;stroke:none;stroke-width:7.08661413;stroke-linejoin:miter;stroke-miterlimit:1;stroke-dasharray:none;stroke-dashoffset:0;stroke-opacity:1" />
      </g>
    </g>
    <g
       id="g4722">
      <g
         transform="translate(226.29056,-219.49213)"
         id="g4644">
        <circle
           r="65.508339"
           cy="449.05676"
           cx="277.78839"
           id="circle4646"
           style="fill:#f70000;fill-opacity:0;stroke:#373737;stroke-width:1.80906701;stroke-linejoin:miter;stroke-miterlimit:1;stroke-dasharray:none;stroke-dashoffset:0;stroke-opacity:1" />
        <circle
           style="fill:#f70000;fill-opacity:0;stroke:#373737;stroke-width:1.70617998;stroke-linejoin:miter;stroke-miterlimit:1;stroke-dasharray:none;stroke-dashoffset:0;stroke-opacity:1"
           id="circle4648"
           cx="277.78839"
           cy="449.05676"
           r="61.782684" />
        <circle
           r="54.394836"
           cy="449.05676"
           cx="277.78839"
           id="circle4650"
           style="fill:#f70000;fill-opacity:0;stroke:#373737;stroke-width:6.92228031;stroke-linejoin:miter;stroke-miterlimit:1;stroke-dasharray:none;stroke-dashoffset:0;stroke-opacity:1" />
      </g>
      <g
         transform="translate(226.29056,-235.49213)"
         id="g4652">
        <rect
           style="fill:#000000;fill-opacity:1;stroke:none;stroke-width:7.08661413;stroke-linejoin:miter;stroke-miterlimit:1;stroke-dasharray:none;stroke-dashoffset:0;stroke-opacity:1"
           id="rect4654"
           width="17.168629"
           height="35.023998"
           x="269.20407"
           y="447.61679"
           rx="0" />
        <circle
           style="fill:#f70000;fill-opacity:0;stroke:#000000;stroke-width:4.25185871;stroke-linejoin:miter;stroke-miterlimit:1;stroke-dasharray:none;stroke-dashoffset:0;stroke-opacity:1"
           id="circle4656"
           cx="277.78839"
           cy="449.05676"
           r="33.410835" />
        <path
           sodipodi:nodetypes="czccscc"
           inkscape:connector-curvature="0"
           id="path4658"
           d="m 260.2764,478.86981 c 0,0 11.58882,3.7771 17.42616,3.7771 5.83733,0 17.59784,-3.7771 17.59784,-3.7771 l 0,14.42165 c 0,0 -11.67467,3.15641 -17.512,3.15641 -5.83733,0 -17.512,-3.15641 -17.512,-3.15641 z"
           style="fill:#000000;fill-opacity:1;stroke:none;stroke-width:7.08661413;stroke-linejoin:miter;stroke-miterlimit:1;stroke-dasharray:none;stroke-dashoffset:0;stroke-opacity:1" />
      </g>
    </g>
    <g
       id="g4740">
      <g
         transform="translate(226.29056,-50.955489)"
         id="g4670">
        <rect
           rx="0"
           y="447.61679"
           x="269.20407"
           height="35.023998"
           width="17.168629"
           id="rect4672"
           style="fill:#000000;fill-opacity:1;stroke:none;stroke-width:7.08661413;stroke-linejoin:miter;stroke-miterlimit:1;stroke-dasharray:none;stroke-dashoffset:0;stroke-opacity:1" />
        <circle
           r="33.410835"
           cy="449.05676"
           cx="277.78839"
           id="circle4674"
           style="fill:#f70000;fill-opacity:0;stroke:#000000;stroke-width:4.25185871;stroke-linejoin:miter;stroke-miterlimit:1;stroke-dasharray:none;stroke-dashoffset:0;stroke-opacity:1" />
        <path
           style="fill:#000000;fill-opacity:1;stroke:none;stroke-width:7.08661413;stroke-linejoin:miter;stroke-miterlimit:1;stroke-dasharray:none;stroke-dashoffset:0;stroke-opacity:1"
           d="m 260.2764,478.86981 c 0,0 11.58882,3.7771 17.42616,3.7771 5.83733,0 17.59784,-3.7771 17.59784,-3.7771 l 0,14.42165 c 0,0 -11.67467,3.15641 -17.512,3.15641 -5.83733,0 -17.512,-3.15641 -17.512,-3.15641 z"
           id="path4676"
           inkscape:connector-curvature="0"
           sodipodi:nodetypes="czccscc" />
      </g>
      <g
         transform="translate(226.29056,-68.955489)"
         id="g4662">
        <circle
           style="fill:#f70000;fill-opacity:0;stroke:#373737;stroke-width:1.80906701;stroke-linejoin:miter;stroke-miterlimit:1;stroke-dasharray:none;stroke-dashoffset:0;stroke-opacity:1"
           id="circle4664"
           cx="277.78839"
           cy="449.05676"
           r="65.508339" />
        <circle
           r="61.782684"
           cy="449.05676"
           cx="277.78839"
           id="circle4666"
           style="fill:#f70000;fill-opacity:0;stroke:#373737;stroke-width:1.70617998;stroke-linejoin:miter;stroke-miterlimit:1;stroke-dasharray:none;stroke-dashoffset:0;stroke-opacity:1" />
        <circle
           style="fill:#f70000;fill-opacity:0;stroke:#373737;stroke-width:6.92228031;stroke-linejoin:miter;stroke-miterlimit:1;stroke-dasharray:none;stroke-dashoffset:0;stroke-opacity:1"
           id="circle4668"
           cx="277.78839"
           cy="449.05676"
           r="54.394836" />
      </g>
    </g>
    <g
       id="g4758">
      <g
         transform="translate(246.17538,78.66754)"
         id="g4688">
        <rect
           style="fill:#000000;fill-opacity:1;stroke:none;stroke-width:7.08661413;stroke-linejoin:miter;stroke-miterlimit:1;stroke-dasharray:none;stroke-dashoffset:0;stroke-opacity:1"
           id="rect4690"
           width="17.168629"
           height="35.023998"
           x="269.20407"
           y="447.61679"
           rx="0" />
        <circle
           style="fill:#f70000;fill-opacity:0;stroke:#000000;stroke-width:4.25185871;stroke-linejoin:miter;stroke-miterlimit:1;stroke-dasharray:none;stroke-dashoffset:0;stroke-opacity:1"
           id="circle4692"
           cx="277.78839"
           cy="449.05676"
           r="33.410835" />
        <path
           sodipodi:nodetypes="czccscc"
           inkscape:connector-curvature="0"
           id="path4694"
           d="m 260.2764,478.86981 c 0,0 11.58882,3.7771 17.42616,3.7771 5.83733,0 17.59784,-3.7771 17.59784,-3.7771 l 0,14.42165 c 0,0 -11.67467,3.15641 -17.512,3.15641 -5.83733,0 -17.512,-3.15641 -17.512,-3.15641 z"
           style="fill:#000000;fill-opacity:1;stroke:none;stroke-width:7.08661413;stroke-linejoin:miter;stroke-miterlimit:1;stroke-dasharray:none;stroke-dashoffset:0;stroke-opacity:1" />
      </g>
      <g
         transform="translate(230.17538,78.66754)"
         id="g4680">
        <circle
           r="65.508339"
           cy="449.05676"
           cx="277.78839"
           id="circle4682"
           style="fill:#f70000;fill-opacity:0;stroke:#373737;stroke-width:1.80906701;stroke-linejoin:miter;stroke-miterlimit:1;stroke-dasharray:none;stroke-dashoffset:0;stroke-opacity:1" />
        <circle
           style="fill:#f70000;fill-opacity:0;stroke:#373737;stroke-width:1.70617998;stroke-linejoin:miter;stroke-miterlimit:1;stroke-dasharray:none;stroke-dashoffset:0;stroke-opacity:1"
           id="circle4684"
           cx="277.78839"
           cy="449.05676"
           r="61.782684" />
        <circle
           r="54.394836"
           cy="449.05676"
           cx="277.78839"
           id="circle4686"
           style="fill:#f70000;fill-opacity:0;stroke:#373737;stroke-width:6.92228031;stroke-linejoin:miter;stroke-miterlimit:1;stroke-dasharray:none;stroke-dashoffset:0;stroke-opacity:1" />
      </g>
    </g>
    <g
       id="g4776">
      <g
         transform="translate(218.0602,235.03141)"
         id="g4706">
        <rect
           rx="0"
           y="447.61679"
           x="269.20407"
           height="35.023998"
           width="17.168629"
           id="rect4708"
           style="fill:#000000;fill-opacity:1;stroke:none;stroke-width:7.08661413;stroke-linejoin:miter;stroke-miterlimit:1;stroke-dasharray:none;stroke-dashoffset:0;stroke-opacity:1" />
        <circle
           r="33.410835"
           cy="449.05676"
           cx="277.78839"
           id="circle4710"
           style="fill:#f70000;fill-opacity:0;stroke:#000000;stroke-width:4.25185871;stroke-linejoin:miter;stroke-miterlimit:1;stroke-dasharray:none;stroke-dashoffset:0;stroke-opacity:1" />
        <path
           style="fill:#000000;fill-opacity:1;stroke:none;stroke-width:7.08661413;stroke-linejoin:miter;stroke-miterlimit:1;stroke-dasharray:none;stroke-dashoffset:0;stroke-opacity:1"
           d="m 260.2764,478.86981 c 0,0 11.58882,3.7771 17.42616,3.7771 5.83733,0 17.59784,-3.7771 17.59784,-3.7771 l 0,14.42165 c 0,0 -11.67467,3.15641 -17.512,3.15641 -5.83733,0 -17.512,-3.15641 -17.512,-3.15641 z"
           id="path4712"
           inkscape:connector-curvature="0"
           sodipodi:nodetypes="czccscc" />
      </g>
      <g
         transform="translate(234.0602,235.03141)"
         id="g4698">
        <circle
           style="fill:#f70000;fill-opacity:0;stroke:#373737;stroke-width:1.80906701;stroke-linejoin:miter;stroke-miterlimit:1;stroke-dasharray:none;stroke-dashoffset:0;stroke-opacity:1"
           id="circle4700"
           cx="277.78839"
           cy="449.05676"
           r="65.508339" />
        <circle
           r="61.782684"
           cy="449.05676"
           cx="277.78839"
           id="circle4702"
           style="fill:#f70000;fill-opacity:0;stroke:#373737;stroke-width:1.70617998;stroke-linejoin:miter;stroke-miterlimit:1;stroke-dasharray:none;stroke-dashoffset:0;stroke-opacity:1" />
        <circle
           style="fill:#f70000;fill-opacity:0;stroke:#373737;stroke-width:6.92228031;stroke-linejoin:miter;stroke-miterlimit:1;stroke-dasharray:none;stroke-dashoffset:0;stroke-opacity:1"
           id="circle4704"
           cx="277.78839"
           cy="449.05676"
           r="54.394836" />
      </g>
    </g>
    <g
       transform="translate(217.54973,-373.91359)"
       id="g4786">
      <g
         id="g4788">
        <circle
           style="fill:#f70000;fill-opacity:0;stroke:#373737;stroke-width:1.80906701;stroke-linejoin:miter;stroke-miterlimit:1;stroke-dasharray:none;stroke-dashoffset:0;stroke-opacity:1"
           id="circle4790"
           cx="433.78839"
           cy="449.05676"
           r="65.508339" />
        <circle
           r="61.782684"
           cy="449.05676"
           cx="433.78839"
           id="circle4792"
           style="fill:#f70000;fill-opacity:0;stroke:#373737;stroke-width:1.70617998;stroke-linejoin:miter;stroke-miterlimit:1;stroke-dasharray:none;stroke-dashoffset:0;stroke-opacity:1" />
        <circle
           style="fill:#f70000;fill-opacity:0;stroke:#373737;stroke-width:7.08661413;stroke-linejoin:miter;stroke-miterlimit:1;stroke-dasharray:none;stroke-dashoffset:0;stroke-opacity:1"
           id="circle4794"
           cx="433.78839"
           cy="449.05676"
           r="54.394836" />
      </g>
      <g
         id="g4796">
        <rect
           rx="0"
           y="463.64166"
           x="427.14648"
           height="18.99913"
           width="13.283813"
           id="rect4798"
           style="fill:#000000;fill-opacity:1;stroke:none;stroke-width:7.08661413;stroke-linejoin:miter;stroke-miterlimit:1;stroke-dasharray:none;stroke-dashoffset:0;stroke-opacity:1" />
        <circle
           r="33.410835"
           cy="449.05676"
           cx="433.78839"
           id="circle4800"
           style="fill:#f70000;fill-opacity:0;stroke:#000000;stroke-width:4.25185871;stroke-linejoin:miter;stroke-miterlimit:1;stroke-dasharray:none;stroke-dashoffset:0;stroke-opacity:1" />
        <path
           style="fill:#000000;fill-opacity:1;stroke:none;stroke-width:7.08661413;stroke-linejoin:miter;stroke-miterlimit:1;stroke-dasharray:none;stroke-dashoffset:0;stroke-opacity:1"
           d="m 416.2764,478.86981 c 0,0 11.58882,3.7771 17.42616,3.7771 5.83733,0 17.59784,-3.7771 17.59784,-3.7771 l 0,14.42165 c 0,0 -11.67467,3.15641 -17.512,3.15641 -5.83733,0 -17.512,-3.15641 -17.512,-3.15641 z"
           id="path4802"
           inkscape:connector-curvature="0"
           sodipodi:nodetypes="czccscc" />
        <circle
           style="fill:#f70000;fill-opacity:0;stroke:#000000;stroke-width:7.08661413;stroke-linejoin:miter;stroke-miterlimit:1;stroke-dasharray:none;stroke-dashoffset:0;stroke-opacity:1"
           id="circle4804"
           cx="434.3067"
           cy="449.63269"
           r="15.605318" />
      </g>
    </g>
    <g
       id="g4955">
      <g
         transform="translate(216.57853,-229.66491)"
         id="g4816">
        <rect
           style="fill:#000000;fill-opacity:1;stroke:none;stroke-width:7.08661413;stroke-linejoin:miter;stroke-miterlimit:1;stroke-dasharray:none;stroke-dashoffset:0;stroke-opacity:1"
           id="rect4818"
           width="13.283813"
           height="18.99913"
           x="427.14648"
           y="463.64166"
           rx="0" />
        <circle
           style="fill:#f70000;fill-opacity:0;stroke:#000000;stroke-width:4.25185871;stroke-linejoin:miter;stroke-miterlimit:1;stroke-dasharray:none;stroke-dashoffset:0;stroke-opacity:1"
           id="circle4820"
           cx="433.78839"
           cy="449.05676"
           r="33.410835" />
        <path
           sodipodi:nodetypes="czccscc"
           inkscape:connector-curvature="0"
           id="path4822"
           d="m 416.2764,478.86981 c 0,0 11.58882,3.7771 17.42616,3.7771 5.83733,0 17.59784,-3.7771 17.59784,-3.7771 l 0,14.42165 c 0,0 -11.67467,3.15641 -17.512,3.15641 -5.83733,0 -17.512,-3.15641 -17.512,-3.15641 z"
           style="fill:#000000;fill-opacity:1;stroke:none;stroke-width:7.08661413;stroke-linejoin:miter;stroke-miterlimit:1;stroke-dasharray:none;stroke-dashoffset:0;stroke-opacity:1" />
        <circle
           r="15.605318"
           cy="449.63269"
           cx="434.3067"
           id="circle4824"
           style="fill:#f70000;fill-opacity:0;stroke:#000000;stroke-width:7.08661413;stroke-linejoin:miter;stroke-miterlimit:1;stroke-dasharray:none;stroke-dashoffset:0;stroke-opacity:1" />
      </g>
      <g
         transform="translate(216.57853,-213.66491)"
         id="g4808">
        <circle
           r="65.508339"
           cy="449.05676"
           cx="433.78839"
           id="circle4810"
           style="fill:#f70000;fill-opacity:0;stroke:#373737;stroke-width:1.80906701;stroke-linejoin:miter;stroke-miterlimit:1;stroke-dasharray:none;stroke-dashoffset:0;stroke-opacity:1" />
        <circle
           style="fill:#f70000;fill-opacity:0;stroke:#373737;stroke-width:1.70617998;stroke-linejoin:miter;stroke-miterlimit:1;stroke-dasharray:none;stroke-dashoffset:0;stroke-opacity:1"
           id="circle4812"
           cx="433.78839"
           cy="449.05676"
           r="61.782684" />
        <circle
           r="54.394836"
           cy="449.05676"
           cx="433.78839"
           id="circle4814"
           style="fill:#f70000;fill-opacity:0;stroke:#373737;stroke-width:7.08661413;stroke-linejoin:miter;stroke-miterlimit:1;stroke-dasharray:none;stroke-dashoffset:0;stroke-opacity:1" />
      </g>
    </g>
    <g
       id="g4935">
      <g
         transform="translate(220.46335,-46.099473)"
         id="g4836">
        <rect
           rx="0"
           y="463.64166"
           x="427.14648"
           height="18.99913"
           width="13.283813"
           id="rect4838"
           style="fill:#000000;fill-opacity:1;stroke:none;stroke-width:7.08661413;stroke-linejoin:miter;stroke-miterlimit:1;stroke-dasharray:none;stroke-dashoffset:0;stroke-opacity:1" />
        <circle
           r="33.410835"
           cy="449.05676"
           cx="433.78839"
           id="circle4840"
           style="fill:#f70000;fill-opacity:0;stroke:#000000;stroke-width:4.25185871;stroke-linejoin:miter;stroke-miterlimit:1;stroke-dasharray:none;stroke-dashoffset:0;stroke-opacity:1" />
        <path
           style="fill:#000000;fill-opacity:1;stroke:none;stroke-width:7.08661413;stroke-linejoin:miter;stroke-miterlimit:1;stroke-dasharray:none;stroke-dashoffset:0;stroke-opacity:1"
           d="m 416.2764,478.86981 c 0,0 11.58882,3.7771 17.42616,3.7771 5.83733,0 17.59784,-3.7771 17.59784,-3.7771 l 0,14.42165 c 0,0 -11.67467,3.15641 -17.512,3.15641 -5.83733,0 -17.512,-3.15641 -17.512,-3.15641 z"
           id="path4842"
           inkscape:connector-curvature="0"
           sodipodi:nodetypes="czccscc" />
        <circle
           style="fill:#f70000;fill-opacity:0;stroke:#000000;stroke-width:7.08661413;stroke-linejoin:miter;stroke-miterlimit:1;stroke-dasharray:none;stroke-dashoffset:0;stroke-opacity:1"
           id="circle4844"
           cx="434.3067"
           cy="449.63269"
           r="15.605318" />
      </g>
      <g
         transform="translate(220.46335,-64.099473)"
         id="g4828">
        <circle
           style="fill:#f70000;fill-opacity:0;stroke:#373737;stroke-width:1.80906701;stroke-linejoin:miter;stroke-miterlimit:1;stroke-dasharray:none;stroke-dashoffset:0;stroke-opacity:1"
           id="circle4830"
           cx="433.78839"
           cy="449.05676"
           r="65.508339" />
        <circle
           r="61.782684"
           cy="449.05676"
           cx="433.78839"
           id="circle4832"
           style="fill:#f70000;fill-opacity:0;stroke:#373737;stroke-width:1.70617998;stroke-linejoin:miter;stroke-miterlimit:1;stroke-dasharray:none;stroke-dashoffset:0;stroke-opacity:1" />
        <circle
           style="fill:#f70000;fill-opacity:0;stroke:#373737;stroke-width:7.08661413;stroke-linejoin:miter;stroke-miterlimit:1;stroke-dasharray:none;stroke-dashoffset:0;stroke-opacity:1"
           id="circle4834"
           cx="433.78839"
           cy="449.05676"
           r="54.394836" />
      </g>
    </g>
    <g
       id="g4915">
      <g
         transform="translate(238.40576,81.581148)"
         id="g4856">
        <rect
           style="fill:#000000;fill-opacity:1;stroke:none;stroke-width:7.08661413;stroke-linejoin:miter;stroke-miterlimit:1;stroke-dasharray:none;stroke-dashoffset:0;stroke-opacity:1"
           id="rect4858"
           width="13.283813"
           height="18.99913"
           x="427.14648"
           y="463.64166"
           rx="0" />
        <circle
           style="fill:#f70000;fill-opacity:0;stroke:#000000;stroke-width:4.25185871;stroke-linejoin:miter;stroke-miterlimit:1;stroke-dasharray:none;stroke-dashoffset:0;stroke-opacity:1"
           id="circle4860"
           cx="433.78839"
           cy="449.05676"
           r="33.410835" />
        <path
           sodipodi:nodetypes="czccscc"
           inkscape:connector-curvature="0"
           id="path4862"
           d="m 416.2764,478.86981 c 0,0 11.58882,3.7771 17.42616,3.7771 5.83733,0 17.59784,-3.7771 17.59784,-3.7771 l 0,14.42165 c 0,0 -11.67467,3.15641 -17.512,3.15641 -5.83733,0 -17.512,-3.15641 -17.512,-3.15641 z"
           style="fill:#000000;fill-opacity:1;stroke:none;stroke-width:7.08661413;stroke-linejoin:miter;stroke-miterlimit:1;stroke-dasharray:none;stroke-dashoffset:0;stroke-opacity:1" />
        <circle
           r="15.605318"
           cy="449.63269"
           cx="434.3067"
           id="circle4864"
           style="fill:#f70000;fill-opacity:0;stroke:#000000;stroke-width:7.08661413;stroke-linejoin:miter;stroke-miterlimit:1;stroke-dasharray:none;stroke-dashoffset:0;stroke-opacity:1" />
      </g>
      <g
         transform="translate(222.40576,81.581148)"
         id="g4848">
        <circle
           r="65.508339"
           cy="449.05676"
           cx="433.78839"
           id="circle4850"
           style="fill:#f70000;fill-opacity:0;stroke:#373737;stroke-width:1.80906701;stroke-linejoin:miter;stroke-miterlimit:1;stroke-dasharray:none;stroke-dashoffset:0;stroke-opacity:1" />
        <circle
           style="fill:#f70000;fill-opacity:0;stroke:#373737;stroke-width:1.70617998;stroke-linejoin:miter;stroke-miterlimit:1;stroke-dasharray:none;stroke-dashoffset:0;stroke-opacity:1"
           id="circle4852"
           cx="433.78839"
           cy="449.05676"
           r="61.782684" />
        <circle
           r="54.394836"
           cy="449.05676"
           cx="433.78839"
           id="circle4854"
           style="fill:#f70000;fill-opacity:0;stroke:#373737;stroke-width:7.08661413;stroke-linejoin:miter;stroke-miterlimit:1;stroke-dasharray:none;stroke-dashoffset:0;stroke-opacity:1" />
      </g>
    </g>
    <g
       id="g4895">
      <g
         transform="translate(209.31937,238.91622)"
         id="g4876">
        <rect
           rx="0"
           y="463.64166"
           x="427.14648"
           height="18.99913"
           width="13.283813"
           id="rect4878"
           style="fill:#000000;fill-opacity:1;stroke:none;stroke-width:7.08661413;stroke-linejoin:miter;stroke-miterlimit:1;stroke-dasharray:none;stroke-dashoffset:0;stroke-opacity:1" />
        <circle
           r="33.410835"
           cy="449.05676"
           cx="433.78839"
           id="circle4880"
           style="fill:#f70000;fill-opacity:0;stroke:#000000;stroke-width:4.25185871;stroke-linejoin:miter;stroke-miterlimit:1;stroke-dasharray:none;stroke-dashoffset:0;stroke-opacity:1" />
        <path
           style="fill:#000000;fill-opacity:1;stroke:none;stroke-width:7.08661413;stroke-linejoin:miter;stroke-miterlimit:1;stroke-dasharray:none;stroke-dashoffset:0;stroke-opacity:1"
           d="m 416.2764,478.86981 c 0,0 11.58882,3.7771 17.42616,3.7771 5.83733,0 17.59784,-3.7771 17.59784,-3.7771 l 0,14.42165 c 0,0 -11.67467,3.15641 -17.512,3.15641 -5.83733,0 -17.512,-3.15641 -17.512,-3.15641 z"
           id="path4882"
           inkscape:connector-curvature="0"
           sodipodi:nodetypes="czccscc" />
        <circle
           style="fill:#f70000;fill-opacity:0;stroke:#000000;stroke-width:7.08661413;stroke-linejoin:miter;stroke-miterlimit:1;stroke-dasharray:none;stroke-dashoffset:0;stroke-opacity:1"
           id="circle4884"
           cx="434.3067"
           cy="449.63269"
           r="15.605318" />
      </g>
      <g
         transform="translate(225.31937,238.91622)"
         id="g4868">
        <circle
           style="fill:#f70000;fill-opacity:0;stroke:#373737;stroke-width:1.80906701;stroke-linejoin:miter;stroke-miterlimit:1;stroke-dasharray:none;stroke-dashoffset:0;stroke-opacity:1"
           id="circle4870"
           cx="433.78839"
           cy="449.05676"
           r="65.508339" />
        <circle
           r="61.782684"
           cy="449.05676"
           cx="433.78839"
           id="circle4872"
           style="fill:#f70000;fill-opacity:0;stroke:#373737;stroke-width:1.70617998;stroke-linejoin:miter;stroke-miterlimit:1;stroke-dasharray:none;stroke-dashoffset:0;stroke-opacity:1" />
        <circle
           style="fill:#f70000;fill-opacity:0;stroke:#373737;stroke-width:7.08661413;stroke-linejoin:miter;stroke-miterlimit:1;stroke-dasharray:none;stroke-dashoffset:0;stroke-opacity:1"
           id="circle4874"
           cx="433.78839"
           cy="449.05676"
           r="54.394836" />
      </g>
    </g>
    <g
       id="g6415">
      <path
         inkscape:transform-center-x="-6.8679865"
         d="m 105.07413,696.97168 -20.603956,11.8957 -20.603959,11.8957 0,-23.7914 0,-23.7914 20.60396,11.8957 z"
         inkscape:randomized="0"
         inkscape:rounded="0"
         inkscape:flatsided="false"
         sodipodi:arg2="1.0471976"
         sodipodi:arg1="0"
         sodipodi:r2="13.735973"
         sodipodi:r1="27.471947"
         sodipodi:cy="696.97168"
         sodipodi:cx="77.602188"
         sodipodi:sides="3"
         id="path6411"
         style="fill:#ffa100;fill-opacity:1;stroke:none;stroke-width:3.543;stroke-linejoin:round;stroke-miterlimit:1;stroke-dasharray:none;stroke-dashoffset:0;stroke-opacity:1"
         sodipodi:type="star" />
      <rect
         y="685.98376"
         x="29.409565"
         height="21.632467"
         width="38.457722"
         id="rect6413"
         style="fill:#ffa100;fill-opacity:1;stroke:none;stroke-width:3.54299998;stroke-linejoin:round;stroke-miterlimit:1;stroke-dasharray:none;stroke-dashoffset:0;stroke-opacity:1" />
    </g>
  </g>
</svg>
